<mxfile host="app.diagrams.net" agent="Mozilla/5.0 (Macintosh; Intel Mac OS X 10_15_7) AppleWebKit/605.1.15 (KHTML, like Gecko) Version/18.1 Safari/605.1.15" version="24.8.4">
  <diagram name="Page-1" id="AjxBr_izK3vjlcwKia6V">
    <mxGraphModel dx="1307" dy="901" grid="1" gridSize="10" guides="1" tooltips="1" connect="1" arrows="1" fold="1" page="1" pageScale="1" pageWidth="827" pageHeight="1169" math="0" shadow="0">
      <root>
        <mxCell id="0" />
        <mxCell id="1" parent="0" />
        <mxCell id="ZoZJ02Cc0tsd7c2bpwbk-4" value="Extract, Load" style="text;strokeColor=none;fillColor=none;html=1;fontSize=24;fontStyle=1;verticalAlign=middle;align=center;" parent="1" vertex="1">
          <mxGeometry x="597.5" y="490" width="100" height="40" as="geometry" />
        </mxCell>
        <mxCell id="ZoZJ02Cc0tsd7c2bpwbk-12" value="" style="rounded=0;whiteSpace=wrap;html=1;fillColor=#f5f5f5;fontColor=#333333;strokeColor=#666666;" parent="1" vertex="1">
          <mxGeometry x="920" y="210" width="330" height="380" as="geometry" />
        </mxCell>
        <mxCell id="ZoZJ02Cc0tsd7c2bpwbk-17" value="" style="endArrow=classic;html=1;rounded=0;" parent="1" edge="1">
          <mxGeometry width="50" height="50" relative="1" as="geometry">
            <mxPoint x="730" y="510" as="sourcePoint" />
            <mxPoint x="950" y="510" as="targetPoint" />
          </mxGeometry>
        </mxCell>
        <mxCell id="ZoZJ02Cc0tsd7c2bpwbk-25" value="Jira / Zephyr Scale / Xray" style="text;strokeColor=none;fillColor=none;html=1;fontSize=24;fontStyle=1;verticalAlign=middle;align=center;" parent="1" vertex="1">
          <mxGeometry x="1035" y="220" width="100" height="40" as="geometry" />
        </mxCell>
        <mxCell id="ZoZJ02Cc0tsd7c2bpwbk-27" value="" style="endArrow=none;html=1;rounded=0;" parent="1" edge="1">
          <mxGeometry width="50" height="50" relative="1" as="geometry">
            <mxPoint x="647" y="470" as="sourcePoint" />
            <mxPoint x="647.5" y="400" as="targetPoint" />
          </mxGeometry>
        </mxCell>
        <mxCell id="ZoZJ02Cc0tsd7c2bpwbk-56" value="" style="group" parent="1" vertex="1" connectable="0">
          <mxGeometry x="580" y="140" width="325" height="300" as="geometry" />
        </mxCell>
        <mxCell id="VnUAQhBIxAJb_dbEDY4t-2" value="" style="group" vertex="1" connectable="0" parent="ZoZJ02Cc0tsd7c2bpwbk-56">
          <mxGeometry x="-155" y="110" width="420" height="190" as="geometry" />
        </mxCell>
        <mxCell id="VnUAQhBIxAJb_dbEDY4t-3" value="" style="rounded=0;whiteSpace=wrap;html=1;fillColor=#f5f5f5;fontColor=#333333;strokeColor=#666666;strokeWidth=2;" vertex="1" parent="VnUAQhBIxAJb_dbEDY4t-2">
          <mxGeometry width="420" height="190" as="geometry" />
        </mxCell>
        <mxCell id="VnUAQhBIxAJb_dbEDY4t-4" value="&lt;div&gt;Data Engineering&lt;/div&gt;&lt;div&gt;Scripts&lt;br&gt;&lt;/div&gt;" style="aspect=fixed;pointerEvents=1;shadow=0;dashed=0;html=1;strokeColor=none;labelPosition=center;verticalLabelPosition=bottom;verticalAlign=top;align=center;fillColor=#00188D;shape=mxgraph.mscae.enterprise.code_file" vertex="1" parent="VnUAQhBIxAJb_dbEDY4t-2">
          <mxGeometry x="240" y="81" width="49" height="50" as="geometry" />
        </mxCell>
        <mxCell id="VnUAQhBIxAJb_dbEDY4t-5" value="Reconciliation&lt;br&gt;Report" style="sketch=0;pointerEvents=1;shadow=0;dashed=0;html=1;strokeColor=none;fillColor=#505050;labelPosition=center;verticalLabelPosition=bottom;verticalAlign=top;outlineConnect=0;align=center;shape=mxgraph.office.services.excel_services;" vertex="1" parent="VnUAQhBIxAJb_dbEDY4t-2">
          <mxGeometry x="327" y="81" width="60" height="49" as="geometry" />
        </mxCell>
        <mxCell id="VnUAQhBIxAJb_dbEDY4t-6" value="Migration" style="text;strokeColor=none;fillColor=none;html=1;fontSize=24;fontStyle=1;verticalAlign=middle;align=center;" vertex="1" parent="VnUAQhBIxAJb_dbEDY4t-2">
          <mxGeometry x="157.5" y="10" width="100" height="40" as="geometry" />
        </mxCell>
        <mxCell id="VnUAQhBIxAJb_dbEDY4t-7" value="" style="shape=image;html=1;verticalAlign=top;verticalLabelPosition=bottom;labelBackgroundColor=#ffffff;imageAspect=0;aspect=fixed;image=https://cdn1.iconfinder.com/data/icons/social-media-2106/24/social_media_social_media_logo_docker-128.png" vertex="1" parent="VnUAQhBIxAJb_dbEDY4t-2">
          <mxGeometry x="10" y="50" width="128" height="128" as="geometry" />
        </mxCell>
        <mxCell id="VnUAQhBIxAJb_dbEDY4t-8" value="Extraction&lt;div&gt;Scripts&lt;/div&gt;" style="aspect=fixed;pointerEvents=1;shadow=0;dashed=0;html=1;strokeColor=none;labelPosition=center;verticalLabelPosition=bottom;verticalAlign=top;align=center;fillColor=#00188D;shape=mxgraph.mscae.enterprise.code_file" vertex="1" parent="VnUAQhBIxAJb_dbEDY4t-2">
          <mxGeometry x="157.5" y="81" width="49" height="50" as="geometry" />
        </mxCell>
        <mxCell id="ZoZJ02Cc0tsd7c2bpwbk-59" value="" style="group" parent="1" vertex="1" connectable="0">
          <mxGeometry x="1130" y="420" width="106.49000000000001" height="130" as="geometry" />
        </mxCell>
        <mxCell id="ZoZJ02Cc0tsd7c2bpwbk-31" value="Postgres" style="text;html=1;align=center;verticalAlign=middle;whiteSpace=wrap;rounded=0;fontSize=20;" parent="ZoZJ02Cc0tsd7c2bpwbk-59" vertex="1">
          <mxGeometry y="100" width="60" height="30" as="geometry" />
        </mxCell>
        <mxCell id="ZoZJ02Cc0tsd7c2bpwbk-40" value="" style="shape=image;verticalLabelPosition=bottom;labelBackgroundColor=default;verticalAlign=top;aspect=fixed;imageAspect=0;image=data:image/png,iVBORw0KGgoAAAANSUhEUgAAAi4AAAJSCAYAAADkqk5lAAAAAXNSR0IArs4c6QAAAERlWElmTU0AKgAAAAgAAYdpAAQAAAABAAAAGgAAAAAAA6ABAAMAAAABAAEAAKACAAQAAAABAAACLqADAAQAAAABAAACUgAAAAAmrONCAABAAElEQVR4AeydB7jcxPX2x7333hvuFRdww76mmW5MD70l9AQIgcAXAoSeEHpCCaH9wfSOAZtim2rAvffeey/XZb/3VXbN+rJ3pdVKu9LuO89zVlppJM38pBkdnTkzU8IoiEAACIwaNarM6NGjqyIplSE1INUhlSAVIeUh5aLrFRGv4pgxY7id27iPUjb6n8syUYnfxrjcXhJSClI6uuQ6Jbad6zwuFvZhZQ+ES8r+uPXYNi73QhhvN6Qwbslt8dt34f/O6P5dd9xxB9d3xAn38xzcthWyAbIRsu2uu+7iNgUREAERyGsCJfI698q85wTwIqYSURdSJ7qkAkKphRdvPS4hNSFVokIlhUIlRSE5ASpHmyAxZYYKDZWbLQMHDlxTUFCwDutrIYxD4fpabN8waNCgCNYVREAERCD0BKS4hP4W+p8BKCNULBpGhYpHLVg9GsDqEdvWANsYhwqJFBBACFigwrMeQkWHyxUU3FcuV0a3Wduh5KyCkkMLkYIIiIAIBJKAFJdA3pbMJQovLz4DtIS0pEAhaQmFhOtURqiYtIBIGQGEPAlsClsOWQChUkMFZ2H0P7cthOWMTVkKIiACIpAVAlJcsoI9cxeN+o40wxWphDSKKiaHYL1VVLhdQQRSIRCz2sxHE9UcWGmo2MyHUOFZAcWGzVQKIiACIuALASkuvmDN+kkPRQoKICdC+kPomKogApkiMA8XGgF5BzIqUxfVdURABPKDgBSXkN5nWFLKwnrSGMln804nNO90wnpnSAcIe+YoiEAQCNB5mBaZhbDOTIV1ZhrWp0IWwDLDHlQKIiACIpASASkuKeHKTmT4GLCXTmtId1T2PbiEtIewS6+CCISVwCokfCIUmvFQaCZgfTye7yVhzYzSLQIikBkCUlwyw9nxVaCk0P+kByrwXliyyYfCHjsKIpAPBGiFmQsZD4VmIhSanyGT0NOJ490oiIAIiICR4pKlhwBNPeXRxNMN0hPNPD2RDEobCAdJUxABEfiFALtz0xIzG8rMOCozWP8Zyj0tNgoiIAJ5RkCKS4ZuOCwp9EEZgMp2EJbdIM0hauoBBAURcElgGY6bGrXMjMH6dyhf212eS4eJgAiIgAiAABWTcyEzIBGJGOgZ8PUZoNLyTwjHJVIQARHIUQKyuHh4Y2FVYW+eAWj+GYTmH1pW6EirIAIikFkCHPmXXbIno0x+ieVXsMRw8DwFERCBHCAgxSWNm4hKsRkOPxKVInv50In2MIh8VABBQQQCRmAR0vMlyuxELCfQTwYOv/SdURABEQgZASkuKdwwVHo0QfeFRaUvLCqnYJ3OtAoiIALhI8DxZUaiTL+PJX1jONaMggiIQAgISHGxuUmo2NpCUTkFisqpiNobUtLmEO3OLAF+NfMlRP8GdqXlPDpsKiiMrvM/hfti23nMPkhsyfWY7IWz5x58kXPOHoMXWlksSkHor8Qlhc9A7D+XjEOhtY2jFMeEM2VzW2w753yKCVYVAkRgGdLyEcr7e7j3ozXRZIDujJIiAkUISHEpAgTdlKtCUTkZL6wB2NUfwpFoFbwlsAGn40zFXFI2R2U7lIZteHFsidvGfTsgVDyonBwQ3CNuD2XAC5JKDSWmyFSMrseW1fCfUhX55JL+U4zL9eqQuhBaADXGDyB4HPjMfYx79DWWY8B/tsfn1+lEQAREIH0CqKSoxF0JYaWlHkDpM6A1YwbkY8jjkMshh0H4YlbwjgCf2+YQNl3+BfImZDxkI0TPsTcMXkf9UAc8FURABAJAIK8tLrCuVIN1pQBfVLSunA6hs62CPYF1iLI8KstgJVkGKwm3UWhyX47/K+T8CBJZDHjZ0hrTGNIoKnXwrNcuso372MylkJwArXufgenbWH4OjnzWFURABLJAIO8UFygrZaCsnICKh+Or8CuV5nqF/xHgsOpzIIsha6GQrIECQkUkXtaBneX/ge0KISeA8lAC5YHNT7QoNIFQ0WmIe9w0uo1NUq0hDSAKvxCYgPLxKsrHa2C18pfNWhMBEfCbQF4oLlHLykBUMMcC6NkQfnXma1iLjLPNfi6+HrlcAaFiMheV8HJYSdi8oCACBxHAs0L/GiowbSCNUZZoqeE6t7WClIbkY2CT6BdQYl5B+RkOLpvyEYLyLAKZJJDTigsq256oSK4A0HMglTMJNsvXogPrIsh0VKjTUaHS14RWlIXgIRM3QCh4RwAfBmVhtaES0wLSDM9YRyw7QLisBcmXQKX/G5S5Z+6888638RHAnm0KIiACHhPIOcUFykodVKJD0H35KrDiwHC5HHYjc/Mgk1BZToaCMpHrUk5y+ZaHK28oj/WRYlpkWuO57IYlpSuEPaNyOaxDmXwBZfIZ5Ht+LmdUeRMBEXBJABUkx9bgPCX86sllYVfh/0L6Q3JO8USeFHKcAMoqn1taY/4ImQ7J5fLKpqRhyHNjLBVEQAREwBiYqSvjy+YasJgJyaUKkA6wiyDvQh5AxXcZ5FDktwz+K4hAzhDgSx1yCsrxncjUq5CfIRy3J5fKMz84Hkc+2aSmIAIikAaBUH6x4+VdCs1B/SCnoUnoYuSfvSLCHugoOyXa5PMT1ifAxLw+7JlS+kXADQGU8dIo351wbC+Ug35Ycp1+MxUgYQ+cauAJ5ItjHCmIgAjkMgFUZuXwYucgcQsgYf4ao9PeBMijqMBOh7DLqYIIiEASArQ2oqz0RR1wC6INh7AHT5jrAX6YPIE8seu5ggiIQC4RQIVVCZXVjcjTckgYK6q1SPfbyMO1qKQ6Q+iPoyACIpAGAdQLJVGWWkE4eOTjkKkQNrGGrY7gh8zzyAe7liuIgAiEmQAKMnsfPAnhiz9MlRGbfP6B9F8A6Rzme6C0i0CYCKC81YZQkbkX8gmEQwOEpe7gRJ8vI/39qJRhXUEERCBkBE5FevdAwlLpMJ3fQHpCFERABAJAAEoA/d8egoTN2fcVpD2UPogBuO1KgghklgC+NBrgis9CwqC0cHyGJ1HBXAyh46CCCIhAAAmgfNaAnIWk/QMyBhKG+uVHpLkAaVUQAREIIgEU0L5I1+uQHZCgWlmWIm1voRnoJqS3PdYVREAEQkgAH0jVUIY5/cdLkDkQNtMEtd75GGk9FmkuhTQqiIAIZJsACiMHZuLYDUF1qhsPReU2VBz0t1EQARHIQQIo33UgFyJrb0N2QoKoxExDXXRMDuJXlkQgHASgsLBr851IbdCc59gW/h4qsWsgbcNBU6kUARHwigDqpqoo+xfhfK9AOAFp0JSYj5DG5kiXggiIQCYIoMBxAKnLIEEb6fZLVFaXQHJ9DpVM3GZdQwRyggDqK3a5HoTMPAfZDAmKErMNH37XI235Oit3TjxfykQICKCQ0Ut+BCQohZ/p4Ci1AyAKIiACIlAsgehHzUeIEKT6axHS1bTYRGuHCIiAewL4cmmBo0dDglDoV+Jr5e8o8B3d50hHioAI5CMB1BstUH9wBO+xkCDUZyuQnqH5eC+UZxHwjQAK1eU4+VZINgs5eyu9i0rnJChR8s737W7rxCKQPwRQn7RDbjlOzBpINus3XvsF1G1VsFQQARFwSwCFml2GP4Bkq0DvxrXfRDoGQ6SsuL2ROk4ERCApASgMnEepPyLdD1kJyVadNx8fiv2SJlY7RUAEfk0AhbgSttIjP1uFdzUK71+Rjjq/Tp22iIAIiIB/BFDvlEb9wzFifoRkow7ci+u+D0VKTeH+3WadOZcIRAvLDOQp0wWWYy/8B9fnQE3lcomp8iICIhBOAqiPaP14BLIYkuk6kT2PzgsnOaVaBDJEAIW0Ji61GpLpAroyqjBlKKe6jAiIgAg4J4D6iR9TH0IyXTdGcO0TnKdUMUUgjwjAysFeQ5MhmSyYdPh9ANeunUeolVUREIEQEkA9VTJqAZmF5GeyntyC6w4JITIlWQT8IYDCSKdX9hrKpFc9246vwpeEFBZ/bqvOKgIi4BMB1plQJC7A6b+CFEIyocTswzWv8ylLOq0IhIcACiCdcD+BZKLg8RrjUPhODA8hpVQEREAEiieAj69W2PsShA61mahHv0cd2qX4FGmPCOQwASgt1ZC9nyGZKGyTUdg0wFIOP0/KmgjkMwEoMBwP5jVIJmap3oT69PB85q285yEBKC0c5CgTXf0+QIHuk4eIlWUREIE8JID6rhuy/SKEvST9/CjcCOWlJ66hIAJ5Q+BfyKmfhYrnfiZvaCqjIiACInAwgcH463fz0XwoSpqk8WDu+peLBKCln+5zgdqMa1wHq07JXOSnPImACIiAEwJQKjgS7zSInx+JzzlJi+KIQCgJQJEog4TfDuEw+n4UpPU47/0orI2wVBABERCBvCfAehcfcrcBxGaIH/VuBOf/R96DFoDcI4DCUwK5egPiS8HBeYfhGnVzj5xyJAIiIALpE8AHHRWYG3Gm7RA/6uHPUAfXSz+lOoMIBIQACgxnP/WjsGzAuTUwUkDus5IhAiIQbAJQLjjQp1+9OSfi/BWCTUCpEwEHBKBY0KdlP8RrxeV7fEU0c5AERREBERABEYgSgHJRFquPQfyol18QaBEINQEoFnSQXQHxWmn5CucuH2o4SrwIiIAIZJfAU7i813VzBHXzodnNlq4uAmkQgLWFTmGeFgyc809pJEmHioAIiIAIgEDU8nI1Vr2ebmU0zq1enXrKwkcAWncPpHoPxCvFZbv8WcL3HCjFIiACwSYAJaM5UjgV4lVdHUFd/cdg51qpE4EiBKC00EFrEsSrgrAKBaF7kcvorwiIgAiIgAcEoLxwNHNO2uhVnb0T74HWHiRNpxAB/wmgANTAVbwc9GgpCkBb/1OuK4iACIhA/hJA3V0OuR8O8Up5GZO/NJXzsBF4xMMH/0sUJnbfUxABERABEfCZAOpbDhT6PsQr5eUVnFP+Lj7fN50+DQKwjPCh3wbx4qGfkEZSdKgIiIAIiIALAqjHK+Mwz3qD4nwDXCRDh4hAZgjAD+VSXMkLpYWOuJp5NDO3TVcRAREQgYMIQNmojw1TIF7U58MOOrn+iEBQCETNgfORnrQfdCgtpwUlX0qHCIiACOQjAdTpzZDv1ZB06/T9UIRa5SND5TngBPBgnujBAx6B0qIJuwJ+r5U8ERCB/CCA+vho5HQfJF3l5eH8IKZcho3Apx483GOjzmFhy7vSKwIiIAI5SQDKywPIWLqKywbU7ZrHKCefkJBmCtaW0h482BGch9q9ggiIgAiIQEAIoF7m9Cppd7rAeQYHJEtKhggYgweyNzikq5FPj/rJCKkIiIAIiECwCDyB5KRbx/8zWFlSavKaAEyJd6f7UOMcJ+c1RGVeBERABAJKAB+VdZC0LZB0lJdVOA+t8woikF0CeBBLIAXpjpT7r+zmQlcXAREQARFIRgAfl/djfzqKSwTnUI/RZJC1LzME0ExES0k6D/O8zKRUVxEBERABEXBLAHV9UxxbCEmnvv/R7fV1nAh4SeAlnMz1gwwN/BYvE6NziYAIiIAI+EbgWpzZdX0fPbaJb6nTiUXAAQHOQdHSQbxioxQUFPxU7E7tEAEREAERCBKBp5GY/WkmKK13RprX1uEiYKi4VEqDAzV3DiutIAIiIAIiEHwCe5FE+jSmE6qmc7COFQEvCEzCSdyaDmd5kQCdQwREQAREIGME/o0rua3zedzQjKVUFxKBBARocWGvIrdhvdsDdZwIiIAIiEDmCcBJVx0qMo9dV/SQABWXdMLOdA7WsSIgAiIgAhknsCDjV9QFRcBDAlRcaPpzG8q4PVDHiYAIiIAIZIUAB6JTEIHQEki3qah6aHOuhIuACIhAfhKokZ/ZVq5zhUC6TUXVcgWE8iECIiACeUJAH5x5cqNzOZuTkTm3HuZ74OhVJZfhKG8iIAIikGMEHkJ+3Nb56lWUYw9DGLOTrsWFE271CWPGlWYREAERyFMCA/I038p2jhBIV3Exo0ePPipHWCgbIiACIpDrBA5BBrvneiaVv9wnkE5TEc2GK9FcVCH3MSmHIiACIhBeAqNGjWIv0BmQdJqJ1FQU3kcgp1KeruLCB/nPOUVEmREBERCBHCOAD8wjkaV0lRYpLjn2XIQxO2wq4oOYbrgZ2nyDdE+i40VABERABPwhgGb9M/w5s84qApkn4IXFhcrPs5lPuq4oAiIgAiJgRwDWltaIUwiRxcUOlvaHgkA6kyzGF4K9KBztQpFjJVIEREAE8ovA28hufH2dzvrQ/EKn3AaRgFcWFxaE79FklHZPpSBCUppEQAREIIwEBg4ceCrSnY6iUvRYKS5hfBByLM1eKi4RFBI56ubYA6LsiIAIhJMAPiTrI+VrIUWVj3T+S3EJ5+OQU6n2qqkoVhC2o8moUk4RUmZEQAREIJwE/o5kx+pmr5ZSXML5LORUqj21uEQLycs5RUiZEQEREIGQEYD1uzeSvAPilcISO48Ul5A9C7mYXD8UFzYZ3Z+LsJQnERABEQgBgSFI43pITNnwcinFJQQPQK4n0eumovgC8r7Gd8n1x0f5EwERCBIBfDTegfTE18Ner0txCdINz9O0+GJxiSs4c6C8NM1Ttsq2CIiACGSMAJSWdGd+dqLkSHHJ2B3VhYoj4KfFJVYIlkB54QBICiIgAiIgAh4TQP3KYSiehMTqXD+XUlw8vn86XeoE/La4xArQXPQ2Kpt68nSECIiACIiADYEbsT9W1/q9lOJiczO0238CmVJcWJg+xZdBFf+zpCuIgAiIQH4QQPPQucjpLojfCkvs/FJc8uPRCnQuM6m48MGfCsvLcVBgSgSaihInAiIgAgEmgHq0C5I3ErIfElMqMrGU4hLg5yJfkpZpxSVWsD6B8lIrXyArnyIgAiLgFQFYWS7HuXZCYvVpJpdSXLy6kTqPawKZcM4trlAtRQHs7zrlOlAEREAE8ogAPvYqI7vDIMXVqZnYLsUlj565oGY1WxaXWAHbC+XlARRIOe4G9QlRukRABLJOAPXkACRiASRWd2ZrKcUl60+DEpBtxSVW+PgVoSACIiACIhBHAL4s9Ae8FbIXEqsvs7mU4hJ3f7SaHQLZbCoqWvjm4Kvi7Oxg0FVFQAREIFgEYIlughR9DilaV2bzvxSXYD0meZmaoFhc4gvi5/jK6JCXd0OZFgERyHsCUFjK4SPu/wHEdkh83RiEdSkuef+EZh9AEBUXFs5CyCNQYBplH5FSIAIiIAL+E4DCUhdXuRkSBF+W4pQkKS7+Pwq6gg2BoCou8YXmIygwHW3yod0iIAIiEEoCUFgqwsJCP5bNkPi6L4jrUlxC+ZTlVqLT8XH5ESi+ylBB24frPA8FpnFu4VduREAE8pUAFJZSUFh+h/yvgGRCSVmP6zyS5rWkuACgQnYJpKO4jIAiUR7Jz5TywoK9Edfsml1kuroIiIAIpE2gEs7wMSQTCguvMQ9SFfVn3zSvKcUFABWyS2AyLu+24Ixg0lEQSuKr4YE0zpPq9Tli5Me45m/4xcI0KIiACIhAGAigvmTHg5cgOyCp1n1u48/HdduTjxQXUlAIO4G0LC7xmYcicRH+06nWbeFyc9xcXPcKKDAawC7+ZmhdBEQgUASgMByGBL0HYbO3m7rO7THfoH6sHYMhxSVGQsswE/BMcSEEKBGDsVgHcVvI3B63Gte+HYWyHdOhIAIiIALZJoD6qDHkOqTja4jbui2d496A0lIhnoMUl3gaWg8rgbSbiopmHAWFXZhHQ9IpcOkcOwVKzMWywhS9M/ovAiKQCQJQDnrhOsMgmbZAx+rN9agDORHjr4IUl18h0YYQEvDU4hLLP5SGkiggZ+D/VEisMGV6SSvMvUgHR59UEAEREAHfCKCeqYL65nxc4AdIpuu62PX2IA20PJcpLqPYJ+fc4uBoe2gIeG5xic85CklV/F8MiRWsbCx34fr/QlpqxadN6yIgAiLgEYGgzCV0rV1+pLjYEdL+MBDwxeISn3EUFI698hkkG0pL/DU3Ig0cjVfTCcTfIK2LgAikTABW5WqwblyBA9OpQ+Prp3TWNyEtlzjJhBQXJ5QUJ+gE0il0VndopxmMFvItiJ9OAfXq2J+Rnt+jEB/iNP2KJwIikN8EUF80hFBBeA2Sye7Myeo9zu3W1OmdQVw1FTmFpXiBJZAxxYUE8JXSEIu7IJkaKTJZgY/tmwclhu3CbZhGBREQARGIEUCdxUHb6LsyEhKrM4KwHIZ09Yil0+lSiotTUooXZAK++rgUl3FUBpWxj0NP74EEoRKIpWEylJi/oHAPQBoP6kZYXF60XQREILcIoPz3RI7+CPkQQh+5WP0QhOV01FEFSJOrIMXFFTYdFDACGbW4FM07ClFnbPsGEoQKoWgatiFdryONZ0OJqVI07fovAiKQOwSiL/R/IEdBnZl5KxSWP6EuKp0OdSku6dDTsUEhkBWLS3zmUZBK4P+bkKKKQ5D+b0b66LGfVqWB4xVEQAQCQgB1Tzkk5TzIREiQ6puiaVmD9HFsmLSDFJe0EeoEASCQVYtLLP/4iiiFAnUc/n8CKVpog/SfDnlf4MuHjr3sLaUgAiIQIgKoayqh7J6KJL8AycYo36nUZ+tQ11yD9Jb1CjHOJedcr2DqPFkjEAjFJT73KKgn4P90SCoFPFtxpyGd/0VlcAWkOdYVREAEAkQA5bIyZAiS9C/IeAgnac1WfeH0uoVI42NQsmpg6WkACykunhLVybJBIHCKCyGwHRcKzEVY/RSyG+K0wGc73iykm2PFnAjh1AcKIiACGSSAclcXcgzK4c247CgIlYBs1wtOr88PIXYO8G2YBpxbigsgK4SbQNZ9XOzwoaBRAXgMEpRxE5xWQoy3GvImKtGrkQ8NfAcYCiLgJQGUqzqQM3HOJyF88e+HpFJGgxB3IuqI0/HBRn8/XwNYSXHxlbBOngkCgbS4JMo4CnV9FO6HsW8rJAiVjZs0UJH5HPIYKpBzIM2wriACIuCAAOqAKigztKbcjuj0h1sOcVMOg3LMT8gPm7EyFnA9KS4Zo60L+UUg8BaXohlHweMoke9A9kGCUgGlk45xyMe5EI0bAwgKIhBPAOW9Ev4PhWRztuV0yneiY2kZ6h+fz0ytS3HJFGldx08CobG4FIWAAsiml2chYWxCSlSZcdtMyIvI21WQ7vT1wX8FEcgbAnjuW0DOhlXlIWT6O0gYnGmLK89Ft09Cvi5Bufasl1CqDwbYyuKSKjTFDxyB0CouMZKoBGqjMuAovLmkwMQqPOaJPazeQIVzI+QISI1Y3rUUgbASQLkth2e5K4Rz/zwFmQAJ2ii1sXKY7nIi8sneklkPSIcUl6zfBSUgHQJ0BGNTUReXJxmJ4wa7PNbzw1Ag+UI/5q677joZyzMg5T2/SDBOyEp0BWQhBUrbtIKCApqepyHvS7BUEIFAEIByUnL06NENkJgWkE54Pjti2Tn6vyGWuWxRnImy+QzK5sfI93zkNRCBigvSQ0uW23AaDnzP7cE6TgTSJZBTiks8DBTOWqgwLxozZszvsL1t/L4cX+fs24shVGpmgAOtNTMgi1BZbcBSQQQ8J4DnrBpO2pyCctcB5Y4KCoVlL598tzh0wzvg8SzK2xisBy4gbVJcAndXlKBUCYS+qchBhm9CnFxqJ3drtl4JDo9CjkLllctfug4eCUXxgEAnnONmyE8Qt89krhy3BwxeQrnybfwVnN+TQMUFJ0qHOx2lFUQgawTy5eX1EArrY6BcgK8gTk/Pglcla9Szd+H6uPQfKODAL0NOJreMApP2XJi052J9Drdj/zYsFfKYAMoMe/Owmac1Bc8EX8ptIJzqgmMrVYfke6Cz7SsoO6+BzwpIvvNQ/kXAdwIlcAVaXLq6vFKgfFyc5gHt7hVhzj4VlcxZOIZdEms5PTaP4m1HXldBFkIWoXJejMqZ6xyHhpYbVtIbsVQIIQGUgfIoA1Q+mkGo0NbH/WyOZbzko3IPBEkDneU5WNzXKA+vghmbYkMVaHFBuuXjEqq7psTGE8hLxSUeANdRkHugIF+CVTr01uM2BUcEaLWhIkMFh0oMfWhWgedaLKnccB+3U1aD8SYsFXwgEFVEaB2pC6kJoTWEygj/W4oJlnRe5z4+41UhCs4IcCTeb6GsvHznnXe+MWjQoFBbI6W4OLvpihVcAlJc4u5NtAfEAFT2p2NzAaQ9pBREwRsChTgNlZmYQkNFh7IZlSlHQ+YLgZaezXFCZYdfudvxhbsFLw0OOphzAfmndYPKRGUIm2iqRYXbuF4ZFpKKcHrlOhUQKiRUQKigUBmRdQQQPAxUvMfgvozB8j3UCXxmcyJIccmJ25jXmZDikuT2Q5Fhz6QTUWlx/IXBEL4kFLJLgMoNFRv2nqKSQ+E6t9EBm1YgOkoW4gt5N5Qdrh+0Hf/pmOhlKIeTlYkKu+CXxTPDbRQONMZ9XKfSEVNEqJxQ+J9KhxRkQMhymIBnZjiemU9w/8ZmOS2+XV6Ki29odeIMEpiMa7EidyMjMpjOrF4KhZ0vntsgbBZxw0rHiJuegeA9A7T0PQ85FJIXgYoLMprOszg0L0Apk4ElUDKwKQtYwvAFxi/5+yD1UfA748vsFqyPhvCLXkEERCA8BNiT7j8ox6dBGmL9UsjE8CRfKRWB/CaQL92hPb3LUGKm4YSUv6Pio5m/K5qUesD/4BisD4TQT0FBBEQg+wRoWZgF+Rxl9Qssx6H8rmSysORCQQREIIQEJiHNbs2GedNU5PS+wi+mDCrIAbDI3I1jPoWsSIOv2/ui49w/02IXbnZ0AP8e8iTK4cUQjjmjEEcATNRUFMdDq+EjQIsLHXQVPCKAXi9sOvo6KtZZUVFw4K4j8IV3BJYDIK2sHfoRARFIl8A6nGAyPhS+gVMtZSzKIHuhyaKSLlkdLwIBJiCLS4ZvDhSZCpDeUT+Zt3F5NjvthehrXwz0DBT/DKxHGfkS8m+Un7MhHJ9GIUUC4CaLS4rMFD14BNSrKBj3hONyXAh5C0Jzt15gYqBnwBjOqkxH+A544co6DBDpBiku6RLU8dkmIOfcbN+BX66/BqsvU1CxcHyP7lGH3+5YbwNpDeFAYwoikIsEaHGcDZkDmYsyMB7L8WhepeJiBTnTxkhoKQL5TYCKC7/qFAJEABU0B1X7JioHUobKvBn+UKHpjh5MHHeCvjLcVgGiIAJhIbAECV0ImYdnegKWlMl47jlQoBWkpMRIaCkCIlCUgCwuRYkE+D8q88VIHuW9+GSi8qfzbwcoNB2h0LTDOpWZptFlSSwVRCDTBDiw20wIuyIvwTO6CMvpcJ6dFj/XjxQUUFEQARFIiQDbjOnj0iWlo36JPBKrg3/5q7UgEcDLgpaYtpD2kGZ4STTEklYaSnMIRwNWEAE3BCI4aC2ETTnz4Wg+H0rJUqxTsZ6JZ205lgoBJIB6QbNDB/C+KEnOCaipyDmr0MXEy4Omd/YaoxwUohNKcowLKjOUQxCffjT1IHWiUhtLzq+jkF8E6G/CQdrY1Zg9edZBMVkCxWQu1qmoUClZgedlG5ZWgKXPUBREQAREIBME1KsoE5TDew32djoJcjeEAw7SP2EfhF/ckvAz2ID7+AOE8/VcATkUX+RqQgaIXA20uCBv6ZTdobnKRvkKBwFZXMJxn7KZSvZ2+jgqVjpgrSkLf5pG+BOz1jTC1zd7PNFCE7+d1ptSEIXME6CPCUdtplgWErywLOtJ/HbcN247KGDbQf/1RwREQASCREBfVkG6GyFJC5wrC5HUhVEpNtXR5ij62bB7N5ucYlIL61UhVaAA1UQTA5We2LbKsX3cD6kOKQPJp7AFmaXiEVtuivu/AQoIrSQxicXZjG0U/t8O5YPNPQcFKSQH4dAfERCBkBKQxSWkNy4MyYaCsx/pZNduCi03rgNe1lRiYkLlhspQRQgVI/4vD6GzMYWKThkoRWWgFHF72bjtfliAaHbnVA8UziK+G+nlkgreQdvxn8PR0zeEy13RdSopW+FDshnMfqVwYN9BQQrIQTj0J/ME+LwriEBWCcjHJav4dXEREAERyBwBKNXycckcbl3JBwIa48MHqDqlCIiACIiACIiAPwSkuPjDVWcVAREQAREQARHwgYAUFx+g6pQiIAIiIAIiIAL+EJDi4g9XnVUEREAEREAERMAHAlJcfICqU4qACIiACIiACPhDQIqLP1x1VhEQAREQAREQAR8ISHHxAapOKQIiIAIiIAIi4A8BKS7+cNVZRUAEREAEREAEfCAgxcUHqDqlCIiACIiACIiAPwSkuPjDVWcVAREQAREQARHwgYAUFx+g6pQiIAIiIAIiIAL+EJDi4g9XnVUEREAEREAERMAHAlRc0pnps74PadIpRUAEREAE/CPQwL9T68wi4D8BKi4l0rhMqzSO1aEiIAIiIAKZJ9Au85fUFUXAWwKTcDpaXVzJqFGj1Nzk7f3Q2URABETATwIP4OSu6vvocUP9TJzOLQJ2BNJVOgoHDRq03+4i2i8CIiACIhAMAgMHDtwRjJQoFSLgjkC6TUXL3F1WR4mACIiACGSDQEFBwZJsXFfXFAGvCFBxScc5d6VXCdF5REAEREAEMkJA9XZGMOsifhFIu6nIr4TpvCIgAiIgAr4QKPTlrDqpCGSIQLpNRTUzlE5dRgREQAREwBsCNbw5jc4iAtkhkG5TUZ3sJFtXFQEREAERcEmgrsvjdJgIBIbAZKTEdde4O+64Q4PQBeZWKiEiIAIiYEvgP4jhus7HseoObYtYEfwkkK7FhWnr52cCdW4REAEREAFPCajO9hSnTpYNAmkNQIcE/zsbidY1RUAEREAEUibQE0ekY23hsbK4pIxdB3hJIF3nXKblTDQXVfQyUTqXCIiACIiAtwQwynlZnPE1b8+qs4lAdgik5eOCJFMDvz07SddVRUAEREAEnBDAB+YgxEvX2iKLixPYiuM7gXSbivggb0Wh0Iyjvt8qXUAEREAEXBN4EkdKcXGNTwcGiYAXigsLAz3VFURABERABAJGIPphuRPJkuISsHuj5Lgj4EVTEQvDPhSOru6SoKNEQAREQAR8JPAczu2F0sJzyDnXxxulUzsj4JXFhQ/093AAo8OvggiIgAiIQAAIYDboAiRjH0SKSwDuh5LgDQEvFZcICslN3iRLZxEBERABEUiHAD4ka+H4pRCvlBZZXNK5ITrWMwKeKi5I1Q40GVX1LHU6kQiIgAiIgFsCD+JAL5UWKS5u74SO85SA14oLH+yXPE2hTiYCIiACIpASAXxAdsMB2yFSXFIip8hhIOCVc+5BhQNNRveFIfNKowiIgAjkGgEoLUciTyshB9XLHv2Xc26uPTAhzI8fFpdYYfkIbay1Q8hESRYBERCBUBLAR+P1SHisDvZjKcUllE9GbiXaT8WFhWYclBf5vOTWM6PciIAIBJAAlJZLkaz9ED8Ultg5pbgE8N7nW5J8aSoqUnA4hoCCCIiACIiATwTQPNQCp94DiSkYfi2luPh0D3Va5wT8trhYhQdfAn91niTFFAEREAERcEoAVu3GiDsd4peyEn9eKS5Ob4zi+UYgExaX2EP/AQpYZd9yohOLgAiIQJ4RwEfhYcjyMkisnvV7KcUlz56xIGY3IxaXuEI1AybNo4MIQmkSAREQgbAQwEdgXaT1UYhXcxA5VXikuITlIcnhdGbS4hJfMF5HwauQw1yVNREQARHwhQCsLINw4hWQ+Do1U+tSXHy5qzppKgQybXGJL1zTo4MkpZJexRUBERCBvCSAj71SUFoeQOb3QuLr0kyuS3HJy6cvWJnOpuLCwrYeygtNngoiIAIiIALJCdyP3ZlUUhJdS4pL8nukvRkgkK2movgCMQdfEX0ykFddQgREQARCRwAfdzWQ6EcgXs7yHF8Hp7IuxSV0T1DuJTjbFpdYgeH4A++hgPbKPcTKkQiIgAikTgBNQ+XxUUcry25IrK7M9lKKS+q3Ukd4TCAIFpf4gsgviqdRYGt6nE+dTgREQARCQwAKy8lI7AJIfP0YhHUpLqF5inI3oUGxuBQtkOtQcC+BBaZ07qJXzkRABETgFwL4YCuJOq8ftnwAKVonBuW/FJdfbpnWskQgqIpLrJBugwLzqCwwWXo6dFkREIGMEIDCcgIuNBMSq/uCupTikpEnQhdJRmByCAoKC/B8FOw6yTKifSIgAiIQUgJ/RrqDqqgUTZcUl5A+ZLmU7HQsLqMB4j+Qog+2X/9XwPryW1hfyuTSDVBeREAE8pMAPsbaI+dvQvyqM4uelz4zt6Z5PSkuAKiQXQLpWFxGMOkofAOxyNQEXyyIiyD3Rgs9VhVEQAREIBwE8OFVFh9gVyG1P0Iy1b15P655H+rMEpC+uG5RhSaV/1JcwvGo5XQq07G4WIoL6aAw1uACkkoB8CLuGyiIxzINCiIgAiIQVAKoI+tBebgF6cvkhIisY3fiupfEuEhxiZHQMswE0ra4xDKPgsnhqP+O//shXiglqZxjKq59KQpl1Vh6tBQBERCBbBJAnVgOddJxSMN/IZmeDJH15xxcv1s8Ayku8TS0HlYCnlhc4jMPBeIU/F8PSUXx8CouTa/DUTgHx6dJ6yIgAiKQKQJQWOqiHvwrrrca4lXdlup53kQ6qhTNsxSXokT0P4wEPLO4xGceheNw/M/GF0Z84f4I6agcny6ti4AIiIDPBIbg/Nsg8XVRJtcLce1ri8ujFJfiyGh7mAh4bnGJZR4FpDa+Op7G/0wW2qLXWoU0/A1pOZRNWbG0aSkCIiACXhFA/dIEcjXONxKSjabyWL23GOk4Ilm+sF/OuckAaV8oCPimuMRyD8XhVKyvg8QKV7aWC6NKTKtY2rQUAREQATcE8CFUFkrAGTj2QwjnWstWvcbrUll6EWmqhmXSIMUlKR7tDAkBX5qKiuYdBaoBtvFrJJuFO3ZtFvJvocT8FoW4adG06r8IiIAIJCKA+qI6hE1B/4Zky48vVo/FlstQl9EB2FGQ4uIIkyIFnIDvFpf4/KOAXYH/iyCxQheE5Uyk6zYU6JbxadW6CIiACEQtK1RW3oBk228vvr5cgPT8wYmVJf4uSnGJp6H1sBLIqOISgwRF4TdYz6bHfXwFEFunJWYs0nYDCncnVAglY+nVUgREIH8IoPw3hJyHHD8P2QiJ1RFBWBaijnoQ9VMFN3dEiosbajomaAQy0lSUKNOsHLB9OSQIlUGiNExA2tonSru2iYAI5B4B1El04P8rJNs+K4nqI27jxxU/+lwHKS6u0enAABHIisUlln98NdTD+lOQoFYUTNcIfOFchwLfIpZuLUVABHKDAMo1/VaOR26ehGR6VNviFJRE26ejHjoqXepSXNIlqOODQCCriksMAApTR6z/CxI0s2zRCmQV0vg+0kvH3kax9GspAiIQDgL4WCqDsnsklICHkOJZkKJlPGj/OaDmKUy3F4RxLnWH9gKkzpFVAoFQXGIEUDhrYZ1fPkG1wBSt1CYirU+jMrgEwqYvBREQgQARiCoqBVBU7keyRkE2Q4qW4yD+/w51ygCvUUpx8ZqozpcNAoFSXGIAULjaYP0VSCEkiJVKcWmaggry70j/0ZBfDbcdy5+WIiAC/hCAolIBZa8X5Cpc4QPIFkhx5TVo27cjre+gDjkJS18CuMji4gtZnTSTBAKpuMQAoJBVQiFmF+ogtz0nq/xmI+1PIB+nQ+jPoyACIuAhASgqpVG2Dkc98Sec9jPIDkiyMhnEfTuQ/keQj/oeokl4KlxDiktCMtoYJgJZ61WUCiQUtkqIPxoSxErHaZrYI+BTyAXIT3UsFURABNwTOBqHPg8JwqjcTuuARPHWIg/d3GNI7UgpLqnxUuxgEgi0xSUeGb+s8FVyCbbNhSSqAMK0bRfy8B3kQVQkJ0NqYl1BBEQgAQGUj3KQ7ij/12P3G5AgD6PgtB5ajvzcj3zVSZBl3zbherK4+EZXJ84UgdAoLjEgUGBKovD1wv8HIWH/2oqv5FYgP5+jMuOkkMdDqsfyrKUI5AsBlO9SePa7Qq5Enl+GzIHEl5Mwr7PTwdvIW38ssxJwbSkuWSGvi3pJIHSKS3zmUclVwIv+t9g2FRLmCi1R2vchT9MhbyKPd6LCOQ6S0a8zXFtBBHwjgPLLiQoPhdCP7QXIT5AwOdMmKreJtq1HGaZ1tZlvMB2eGGmQ4uKQlaIFl0AofFyc4EOB5HTuHJshF5qSElV+sW20zHwCeRyV4e+R74GQavivIAKBJBC1onTAc3ouEkhL6TsQfjTthsSe61xbUgH7F/I8GPkvj/VABKRHiksg7oQS4ZZACRzIyqOryxOMxHGDXR7r62GsLO666y5aYk6BlPH1YsE5+WIkhfdzEfK/BMs5kNkFBQULBg0aROuNggj4SgDPXQVcoB2k4+jRozuMGTOmE9ZbQ5pDAvPyRlr8DJPxQfGfO++882WUu61+XsjNuam4oG78zs2x0WNOw/K9NI7XoSKQNoGcsbgUQ6Ibti+C5NrXXCr52Y78fwvhl25/VFyaPBIgFNIngGeJHz/8gn8EMhESloEjUyk/TuOyG/bvIYEOVFyQQKd5ShRvaKAzqMTlPIHS0Qc4lzM6CWba9vj6G4ivjGOR0bMhDXM5wwnyVhHb+kXlZnDYiXVaYyagEluI5UrIfMg8WGeW4SuRlZWCCFgE8IxUxsohkFaQlnh+GmHJEa5bY51TdXB/vgY2dX0GRi9h+Ql48L+CCIiAjwT4tZSTTUXFMYMSUxJKzJGoYM5FHJo8qxUXN0+3s+KlMkM/mhUweS+BMrMY62x6oqwBu3VYKuQAgahSUhdZ4cBnTSDNcX8bY9kCQgWFSj73KxxM4GuwewVl420o+hsP3hXsf0i3moqCfYuUOhsCeae4xPOAElMOSkxPyCC0xZ+Dffx6VLAnwOaA5RAqMlRwVqIyXI/lBsiqeMFLkNYdhQwSwL0ohcvVhFAZOSC4F7SScDuVESonTSE1IAr2BKiccHLVN7AcDZahtaxIcbG/2YoRbAJUXNguTT8QN2EkDgqkc66bzKBAd4YScxaUmDNwPB0MFdInsAunoFJDKw0VG65TtoD35rht3M//lG2QHfia3Z6vTsVgQydXNvHFhI6t5SBslmGX+Pp4VuvhWaUiQuXjgIKC9aoQhfQJsPmUEx2+jWdxBJ7FwvRPmf0zID/pWlyGIhfvZz8nSkG+Eshri0uym47CXQ/7B+HL6nQsj4PwhaGQeQK07tC5mJYb9tCgUsMllSAut6A5ayNeLFSGNkGoKPEYvmT4VUzhNi5j2/di3avAMkSFgj3XykbX+T+maHAb93HKilp4nqhkUNmgckFhUyWfrSrRZUxhwV+FDBPgc/Ylyv4HWA7HvVqd4etn5HIeKC6nIaHvZSSxuogIFENgMrYn8hx3sm1EMefMqc0o6HzBPALhy9AJF8URJz0D4XkGqNg+jnJOJTLnAxUXZDKd55MWFwURyBqBfOhVlDZcfHltwUluQIG/D8vDYKLvDRP98Vg/FKKuxYCgIAIhIzARlrpPYKkbjnSPQxnfAwlZFpRcEchPAlRcaOpWcEAAFRtncWVFR7kdikwNLAuwnQoMZQCE1hkFERCB4BCgdYGKymdQVDilwE8osyvx8WEoCiIgAuEjwO7Qbs2GedFU5PSWopdSaSgzh6OCvAXHcEh+9rjZD3HLV8eJnZ6B1J8B+j6NhTyN8ngOhP5qClEC4KGmIj0NoSZAi4uCRwTQ64BOnz9G5UGeNlppDsAX3kD8pUWGXa7VvAQICiLgEQE25X6HD4YxsKh8Dfk5WhYNyp1Hl9BpREAEgkKAzUS0uHR1maCROC5nukO7ZJDSYVBk2KOkC6QzKtV+WPaCtIQoiIAI2BNg7zDOBfQdFJRvuY7lQigqtGwqOCBAiwvqHs1V5ICVogSXwGQkza05Wk1F3tzXtjjNkxA2Lbm9FzpO7HL1GWCvny8h1+Cly27lCmkQoOKCw9N5VoamcXkdKgJpE1CvorQRenKC2TjLtRRUKo2wPAxfRD2xpDWGyxoQBRHIdQJ8mXIsnnmQySgLU7CcCIvKRFhUtmNdTT+EoCACeU5ATUUheABQgdO5sA2kGxSazliyqYm+MhoUDxAUQkeACsoGyALIFDT7TIVyQiVlEp7vjVgq+EiAFhc1FfkIWKf2nYCcc31HnP4FUMlwBE/KN/FnQwXUAP9bQLogDhUZKjWdILUgCiKQbQL7kABaTxZCFuB5nY4lFZSpeF43Y2kFdUuOkdBSBETACQEpLk4oBTQOKv+VSBrl+/gk4gXBEUCp0LTDYHmt8WKgtYYz/zaGNIPovgOCgicE6BTLyTbnQJbBerIU1pO5WJ+J5Qw08dA/xQp4XmOrWoqACIiAawJ6gblGF9wDo1+z7C1GOShgrJmyUGao1DSPSn3EZ1MU/1Op4b4KEAURIAEqHoujsghKMa0nayBUmBdBOWGPngPKSbz1RIoKCCmIgAj4QkC9inzBGuqTtkPqz4bcC2HzFF9MEUnOM+AklBxZ9iHIKZDmUFRKYKmQQwRwT9WrKIfuZz5mhRYXvpAURCCewCz8obzBjRwRGFYa9nZqCKH/DKUBvqjpYxMTbuMYNXUgGmAPEAIU1iEtqyCcQZuyEi8vdr3nNi7pKLsO1pNlsJ4UYv1AkNXkAAqtiIAIBISAmooCciOCnAy8zDgicKy5IGlSo0pOXUSiQlMfQmWGvZ9qQPmpiKaE6linDw7H46Dwf0wZ4rpC8QRo+doC2QShMkKFg06uW+Bbsh6KB7fFtlsKCratwv2jJeWgkEghSbTtoIP0RwREQAQCQECKSwBuQi4lIark8CueknKAJYBKTsx6Q0WmIqRcVOh7w//WEi/aslin8H+8xOJzH59xShlIqbj/sW1ccjuFcWLb+Z+BFgi++Km8xYS9ZeK3cZ3bYvu55HFUNHZHZSeWlkDJ2AGFgnG4f0dse3TJ+NzOcUsspQTLLcjrViyLDfG+JfGRpIzE09C6CIhArhCQj0uu3EnlQwREQARsCMjHxQaQdgeegHwRAn+LlEAREAEREAEREIEYASkuMRJaioAIiIAIiIAIBJ6AFJfA3yIlUAREQAREQAREIEZAikuMhJYiIAIiIAIiIAKBJyDFJfC3SAkUAREQAREQARGIEZDiEiOhpQiIgAiIgAiIQOAJSHEJ/C1SAkVABERABERABGIEpLjESGgpAiIgAiIgAiIQeAJSXAJ/i5RAERABERABERCBGAEpLjESWoqACIiACIiACASegBSXwN8iJVAEREAEREAERCBGQIpLjISWIiACIiACIiACgScgxSXwt0gJFAEREAEREAERiBGg4hKJ/XGxbObiGB0iAiIgAiKQPQLNs3dpXVkEvCEwCaeh8uJG9nqTBJ1FBERABEQgQwT+huu4qe9jxwzNUDp1GRFISKB0wq3ON5YcNWpUyUGDBu13fohiioAIiIAIZJFAqSxeO3CXXr16dYkZM2bUQsIaTJ8+vf7atWvrYL02t61Zs4bbq1PGjBlTDcuqkIqQ8pBycRLvdkG+/KjfAymMk21Y39qhQ4etderU2Yr1LZBVBQUFq7BcS8H6aiyXI866evXqUVFUSECgBLbR4tI1wT4nm1YgUiMnERVHBERABEQg+wTuuOOOK++6666n0kjJaTj2vTSOz8qhS5YsKTF27NgWP/zwQ9dly5Z1gJLSGcpJFySmJYRKSJDCDiRmdu/evWc0adJkOpZTsPzprLPOooKjAALpNBWNFUEREAEREIHwEIDiciJSG2v2cbMMfFMRlJTSb775ZrczzzzzMrz0qaT9CKHFw01+g3LMPqR/CvLzH+YL+WuD/3kZ2FREq4vbsN3tgTpOBERABEQgKwQc19tlypQxtWrVsmTPnj1m3759Bl/+Z6Kpox9SziYTSgU0qZRAU0oZ5gYv1r2IsxurMdmJdTaNxJpK1nfs2JGWgw2QtY0bN17bt29fvpRdBygqpWBN6fbWW28dBzmqadOmh+FklVyfMJgHsjmqM/JJuRz5ZCpXgd9oKDKf9+nT53NYZJYGM+nepirdpqJvkZwjvE2SziYCIiACvyaAL0z6GjSANESlXR9L+iJQuL3i0qVLK6FCr4B1+hhYL1EsGehvsBcv1B14odIEzxc3/Qs2UbB9HbbzRboGsgqV/2YsczbA4nIMmopGxmewXLlyplmzZmbv3r2mSpUqZvLkyfG7/V6n0kL+9PVYipfwEiyX4IW8EC/jGVjOgWJDf5GDAp6HQ/AcDEbTz2A0/QzATvqg5HOgZWga+A0fOHDgq9dee+20XIWRruKyAGBa5Soc5UsERCCzBKZNm1Yafgdt8TLqgpdRZyxbY0kfBNYzmXoxbcS1FuOFuRgvzoVYXwTlZh6Um9l8maZrHcD5shqguFz85JNPvlC3bl2ze/dus2ABq/FAByqeC8B+Bu7HdCio1aGgHo9tfC4UEhOgEjMOSszbkDehjC9KHC28W6lau23D24tCUDm8WVfKRUAEskng+++/r/7Pf/7zZFSu9yAdtALQEuK2PsrEcWz2mIqXKF8I96D+Owlf/rT6BDrQMRWce+JL/B9IKC1KmWClawSDMy1ao2+44YbLUN5y5n2djnNuBAX3qECXWCVOBEQgMAToi4AX6EC89P+ORP0M4dd0LrzglkGZGU5lBvkbAmWGTVlZDVFlpT+sRU8gIewBmguclYf07uMWPA/PUYnN6sOZ5sXZVESLC7uEuQrQ4O+HU9Ztrg7WQSIgAjlPAM0/Zf773/8OgT/C6Wj2OQ4Zpk9Krge+YBdCmfkRzRtjodB8j7pyAsbm8H3MKyhNzR5++OHL0ZxyEdLQJNdBZzJ/pUqVMlWrVjXVqlUzFSpUMPQNKlu2rLUsWbKkiUQiZv/+/ZavEB2Zt23bdpDQwTlAYSysME/8+c9/fgPPJa0yoQlpKy7I6WjIoNDkWAkVARHICAE6T+IFej5eoL/FBRtm5KLBvsgKfO2y98cYyJfwO6ATqicB1pWSjzzyyIlQDq+DckgreElPTpwnJyldurSBkmk5KKNHkrVs0KCBwQvd1K9f3zRs2NDUrl3bVK5c2ZQowdemu7B161aDHliWYOA7s3z5csvHaPHixWb+/Plm3rx5lqLj7uzujkIPsUnnn3/+X/D8DHd3huwclVZTEZK8CyIH3ezcO11VBAJFAC/Q0viKOw0vAfqr8CtOpv3iGcyHIvMkeA2B7wFHZHUV0Fx/Fg6cDRFrGwawmETatGkTOe200yL33ntv5MMPP4zMmjUrAidlGEuyH2CtiUDxjIwcOTICRSJy8cUXR7p06RKBYpWJezuRZZdNjK4exAwflK7iQqCzMfQ/uyEqiIAI5BkBDpmOXir90BRCX4rVkExUsrl2DbYhTADDp6CIXID6tFGyxwj766L56SbEmSLev37eYBmJHHbYYdaL/8EHH4y89957EYyUG9m1a1f2tRMXKWC6f/rpp8gzzzwTufrqqyP9+vWLVKpUya8yMAfP1s18xpI9g9nc50VTkZV+FLjfw9eFFZeCCIhAnhCgtQBfhuwR1ClbWS5fvrxlwkdFbij0Q6DfAU36eEdYg6YVFhaaHTt2mJ07d1qm+O3bOZRLoAN9Yegb8xHkbTQrzWNq2QvrxhtvvBXNb7/H3/Lc5ldgE0nbtm1NixYtrKYTNpugWcGwGzX9PMiaTSfkT9ZsbiFvdrHGi9ZiTd6bNm2yZOPGjQbzABl0ZzawKljLhQsXmnXr1qWdBd5zKCpmyJAh5thjjzVdu3Y19DnJ5cAxd6DMmM8++8wMHz7cTJgwwevs7oJF8HE0996DIQA4gGBggmeKC3K0GhraIZhwkaMjKoiACOQwAfivdMXLlEOp9/Ezm3SAbN26tWnVqpUl9D9o1KiR5XNAHwS+RBkn1UAnyc2bN5sNGzZYL1O+UFeuXGlWrFhh6G9AXwMuuY0v4ywHJmAyXiKjoLBciPVaXqeHfHF+07NnT9OpUydLqLhkItDvg/4dWa9sowAAQABJREFUaLIxM2fONBjHx0yaNMnalow903fiiSeak046yRx11FHWwHmZSG9Qr4EmHgPLkoGfExVcL5/bVfhAuQ3yIspf1gtDjL8XTUWWyQpWl4djJ9VSBEQg9wjQhwUWgOuRM5osrHLv1ZLt+Piyi9x2220RVL6WaR8KBt5d2QuwGETQKyry9ttvR+65557IhRdeGDn88MP9NNN7yrS4e9OyZcvI7373uwgU0AicRbMHOMmVYamJwJoQufXWWyP9+/ePwLITge9U5KabbrKaTdBrJ8nR+b0LIx9Hfvvb30bQ+8mz5wnsv8fzEphB/9IZgK4olH1on82Mmo4SqSACIpA5Ahj7oT+u5plPBZoXIr169YrcfPPNkREjRkTQdTQ0bxu+NGfPnh159dVXI3/4wx+sF2vFihWL1oeB+o+eMRZrWDRCwzk+oWjui6B5JH6T1m0IoEk08uKLL0bQi82rZ3Edm4czV+sUfyXPLC64BOG8WvyltEcERCBsBGBlKYdmBA4Yl/ZgcZi0L3L88cdbTobsPZFLgS9Vfuk+++yzkUsvvTTSrl07r14Wrs9DZeq8886zLBd66efS05Z6XtD8Frnooosi8P9y/TyhDuCx+2F9GYbmqNrZrMu8VlwiaDK6JpsZ0rVFQAS8IQArSzecaRokrcoOik/kiSeeiKAHUuo1boiPgO9M5N13341cf/31EfjqpMUwlXtwyCGHRHDvIvDhCTG9cCQdPZgju/fsjezYVRjZXbgnUoj1vQFuxoIfV+SWW26JYDLNdJ/HFbC+DPampkntLHTOpeLSNbXDbGPvhfJyGnoZfWQbUxFEQAQCSQC+LJfB1+RJJM5175Wjjz7aYGROy3kykJnMYKLwGjZoXjJffPGF+fzzz83o0aPNli2cmsm7gKY3A58Qq3dNrveq8Y7aL2fiPdq4badZtX6rWblhq1m3ebtZv2WHWbtpm1mH5bYdu83WnbvNtp2FZufuPWbP3n2mEJIolCpZwlQoV8ZULFfWWlauUNbUqFLB1KxS0dSsWtHUwrJh7aqmad3q1rJcmdKJTuPbNvbyQo9AAwXX6nHn8kL78VHyGHxfboXj7m6X50j5MC97FRW9OCcju2PUqFEPo6dR4jtb9Aj9FwERyDoBNA2Vh5Psk2jKucxNYtg1FUqPwVed6daNBhuFRATYs4m9P+DfY3VnnTKF7kPuAnsD3X333Wbw4MFpjezq7urhOwpWErNw1QYzY/Fqs2jVRrNkzSazZPUms3ztZrNrD1tEMxvYnbx+jcqmef2apmXDmqZ1o9qmbZM6pkWDmqZ0KX+7dVOZvu666yxlOo1cj4fyckamZqH2U3GJMXgZKxfF/mgpAiIQXAKofOpgnJAPobT0TjWVrHzPOOMMgxFJrS7MqR6f7/HZ/frjjz+2urTSGsO5buwCx1C57777DByEc37cEjsWdvt3wELy6hcTzHfT0N19+TqzqzDzCopdGovupxWmfbO6pnOL+qZvx2bm0NaNfFNkPv30U/OnP/3JYKC+oslw+n8Dmo4uhBXH96kDMqG4MNPnQYY5zb3iiYAIZJ4ArKONYB0dhSu3TvXqaBo2GKjKdO/ePdVDFT8BgUWLFpmXX37ZwD/GwOE3QQxjTjnlFMvUj67NCfd7vXHvvv1mM5pRNkC43LFrj9lZCNm918DN48DlypbGAIBlShm+dCuVL2sqVyhnqlQsZ6pXLm/9PxAxCyvwPzEfj51pXh4xwSxbtzkLKUjvkhXR9NSzbWPTu0Mz079zc9OwluuZIhImhIPaYRRsg97Bbpsx98Paegean+71c8wXv3xcikLZgIrtJPi8/FB0h/6LgAhknwCahyr36NHjaziTHppKajgI2EMPPWTOPffcjDRR0Adh07Zdls/Bqo1bLf+DLdv/53ewC1/UfJHu2bvfepHuhe+BZWaHJYgvU/oblOfLFL4G9DeoWrE8XqYVLL+DWvA5oO9BSfglBC1wQLZhw4YZdL02VGg48N5TTz1l+bH4kVb6bsyFRWLm4jVm1pI1Zvm6LWbF+i1mzcZtBykobq5doWxpU69GFcuno1Htagd8PFrUr2H4v5TPzSKxNO+DEvbG6Mnm6Q/HGlpiwhrYpDTo0Fbm6B6tTUs0K3kVOPAiHMoNLLCuToleR2+MHz/+Ioy27IvfS6YUF2Z+B5SXC6G8vOOKhA4SARHwhQAsLe3QNv0mlJbOTi+AHgkGA8WZa6+91hr23elxTuLxxUm/A/ogLIXvwYrYixMOkmvhLFm4x74Jxcl1isYpCQWnWqXypk71SqZu9cpYVsZLFlKTyyrWev2aVSxLQtFjM/GfShvN+M2aNfNslNgNW3eYGYtWm5lQUGYvWWvmr9xg+XnEW1AykTdeg0pmA/BtWq+6aQKH1Rbw92jftK5p3bi2KQPF04+wFc62I36ebd79ZpqZsyz9qQf8SKPTc1Lx69OhqemDJqXeWHrh7Pvdd9+Zv/3tbwaTPjpNxoF4eE6/xBgyZ8OKu/7ARo9WMqm4MMkRKC/3QHn5q0fp12lEQATSIIAvqsOgtIzAKao7PQ3nrvnoo49Mx44dnR6SNB5fyPOWrzffT19svpm60EyeH4hh9hOmmcpNk7rV8DKtY9rghdoJvgddWtY35cuWSRg/iBtpPeHLevSkBZbS8ksjTxBT+z+FpkvLBubw9k0hTUyHZvU8t4yxpetbPHuPvfutpTQHk4TzVNF6eO5R3cyp/TtaVkXnRyaO+c4775grr7zSzbxSS1DHHI86ZkbiM7vbSsWFDahd3B3u+qjVUGBugALzmusz6EAREIG0CKBCoaXlW5zE8dw3GDzOvPLKK6ZmzfTM0pb1AF/6I36eY0ZPnm9WovtpWAO7vR4Ck32nFvVMx+b/U2Sa1auRkaazVJhNW7jKvDRiPBSW+dagPKkcG6S49JXp37mFKeja0vL1KI/mJ68C/XjeGDXZ/Gf4j1aXZ6/Om63zsGn0xD7tzHlHd7e6XaeTDs7jxXmhJk6cmOpp1qOuOQ51zbhUDywufqYtLkXT8QLM1H+AKSm8tVbRHOm/CISAACqSBqhIvkdSmztN7u23327uvPPOtHqvbMBYGB98P8N8+N10sxRdT3M11MR4HewB0j0qhzSqlRVFZt/+/ebzcXPRm2ai1RyUa7zp/DugSwtz3GFtTW9YZLzykVmPJslH3vnWfPbT7JxARt+tY+AHc/kJh1ldrN1mipOScqiDr776KtVTbEGPo1PQ42hMqgcmip8ti0t8WjhI3SnxG7QuAiLgHwE44laBxz8rEEeOuJj80GAYe3PJJZe4ThS7n748coIZOW6O4VdtvgUOPHYErASDurUyPdo2sgYl85MBFZbhY2eZFz8bZ41R4ue1gnJuOlifc2RXc1ZBV896L42dsdjc9+ooyzk5KPlMJx1s6jz+8LbmipN6W47Rbs7Fbvr0b/v73zkLSEphB5SekzCoJXsuphWouPgxcm6qiXoNlperYXnZlOqBii8CIpAaAXj8v4VxWs5wchTmurG65HJgMzdhC5wfH3vnG/PBd542cbtJSmCOoaMpLTH9OzU3/dCllSOnehnoJ/TEu9+ZBXC0zcfApqPjYYE558huplVDx62gxaJir6O/vjDSamIrNlLIdrCX3dmDuprLTuhldVd3k/zXX3/dYE4ugxnUUzl8e1R5GZ3KQUXjBkVxYbqWQR6GAvOcmo6K3ib9FwFvCKDS+BO+eBx9KlWqVMkaEK2goCDli2OuFvP6V5PNC/ji37x9V8rH59MBVFyO6n6IGditpekIx1MO5OcmsAfWP9/6Gk6mi9wcnpPHsPnowmN7mF7tGrvmSjC0YPFZ/s/HP1nruQKLVqo7LzrG6onkJk8//fSTNZ4Q5iBL5fDtGOdl8B//+MfvUjkoPi5LSDacc+PTUHR9ORx3b4Lj7utFd+i/CIiAewJoYy5AG/PnOIOtNyMtLcOHDzdulJaJc5ebB18fbfUUcp/a/DuSloJ//WGo6dqqQUqZ5/D1r3010fz7g7EGk/2ldGy+RO7YvJ659Phelj+MW8WQrOjgfPvzI3LKP4vNR+cfc6jVfFTOhaPzwoULzYknnmhmzpyZyuO0EX52g+BnR/0j5RBExSWWiVEYve/Ku+66a05sg5YiIALuCGBOnBqYf4iT4TS2OwN9Wt5//32rMrKLG7+fQ6j/+4Pv8RKdZNi9VME5AY40+8jVJ1tdfp0fZaxJ/v728hfm0xxxIk0l727idsDw+Vee3Nv0RTOd27B9VyH8Xr6yesS5PUcQj2tcp5plfel2SMOUk0en3RNOOMH8+OOPqRy7CspLfygv81M5iHGD1FSUKO2F2DgKFphnYIF5L1EEbRMBEbAnAL+WV+HXcq59TGOee+45c9llqc2vuGDlenPLM59g0LiNTi6hOHEE2J36oStPMkegd0wqgeOx/PnZT62JAlM5TnGN1XT0598MMuy27iZQMX/3m6nmn29+Xezs0G7Om+1jaH258Nju5good6kO+rdt2zYzdOhQa/bzFPIxB8pLXygvKQ1SF2SLS9G834MNtxfdqP8iIALJCaCJ6Ew0ETkau5u9BThJYiqBPYXu/r8vMWdNeIdOTyW/Xse9/YKjzJB+qQ3m99Ospea25z61pj/wOj35cr6K5cuYa4b0NWcM7GxKlXQ3AzObjm5+9hNrOoRc4saJHR/47fHWNAyp5Gv37t3m9NNPt5qZnR6Hj6pvMT3AkZgewHEFwnGUr4TUd3qRIvFoel4BSa1RtshJHP4dgHg90Hw0AdaXlLQzh+dXNBHIOQLTpk2rcuGFF3Jk3Ep2mevZs6c1H05Jh5U4vzpf+Oxn88Bro/Oyi7MdTyf7Lz/xMHM+BgdLJXB4+v/338+syQ1TOU5xDybAOa04WvOYyQvMIeh9xOkcUg11MSUEezBNWbDSrMZcTrkS1mEcm49/mGmN+dIc80g5DWxmpuIyYcIEM3fuXEeHbdmypenPP/+8B7Ojf+3oAERKV3GZjF5Ag1966SVOHtITUtbphV3Gawul5Soc2xYKzHYMhrUE186/QSFcwtNh+UcAc9vcjgrheLucV6tWzRrGH189dlGt/dt27ja3/udT8/bXUx3FV6RfE7j4uJ7mqlN6O+7twnl17oFli71b5EP0a55ut3BQxI8wKCInlGxcp7o1T1Uq5+LknSf2bmfKYdqHyfNXoNdRbjh4FWKSUlpTl2MWbTqMM59OApUX9F40+Ggys2bNcnKIQR3VF+/0KXi/OxrxL10fl5FIlTXAAy7aA460H+O/W+uNowwWibQE/i8PQoEZpjFgipDR37wngLbjRmg7ngMQFe1gIK5V2djF4372Yrnh3x+a76YtdhJdcRIQOO2ITua2845MsCfxpjWYYPLqR9/LiXl0EucwOFtP6dvB3HjmAGsG8VRTReWH94njF+VSYLdpOo93QO8sp2H79u1Wr8Rx4xyP9F+IZu2j0Kz9rd010vVxOaC48EKwvjSEAvEGVvvbXdjj/dtxvhehPD0K5Wmex+fW6UQglATQdvwyHHIvsEv8eeedZ80/ZBeP+/ml/3d0dX5rDFuJFdwQ4CSBz910hmFPIieBZvsrHn7HLF6t8Tmd8PIiToNaVcw9lw6GpaFhyqcbN3uZue7x982eHBshmhaXf/3hVEwq6twzBDPOm379+jluNgLspegB2Q09IJOOnkiPJM/sWlBaVkB5GQQryKMp3+30DmD7/TVQWmhmGofr/wnpcN4wl961dbQIBI4ABnjq6KQXUf369c0TTzzhOP0vjhgnpcUxrV9H5Nw6911+nGOlhYP38QteSsuvWfq5hZN+/vaf75hnP/4x5QHnerZtbB699hRM6+CsacXPfHh5bjrf/+np4YYDHToNderUMZ988onh0mFoAivxs3ZxPWsqSnAhKi9/SLA9U5vowHsaxLHDT6YSpuuIgN8EYG15F4rLULvrvPzyy+aCC2yNMtZpvpo4z9yMLs8K7gncfemxcOZs5+gEuwr3mGsefd9MhuOnQvYI9IIi8uDvTjBVK5VPKRFTF6wy1z3xfk7MMh2fcTYb0fLCGdGdBlhRzFFHHWV27XI2ijaajIagyejD4s5PiwuVF88DLB5/RNMNFYfJnp/c2Qk5SQWnsHwX6TgS4ks+nSVFsUQgcwRgbekFpeVUuyseccQR5vzzz7eLZu1fhPFZ7nqJg+4quCXQo00jx0pLBG1ynB9HSotb2t4d9zObfp74wGxJceqKzi3rm6dvOM1US1Hh8S7l/pxpPZyZr3zkPYyMvc7xBdD0Y55++mnH8aG0PIbJYIvVFP20uFiJhAJTDk1ID+APrS/ZVB424/ofQYF5AcOYj0KaPGsiszKqHxEICAFYW96zU1zY5ZldFrt27Wqb6kIMI3/B/W+Y+Ss0CoEtrCQRnv3j6dbkikmiHNj1/nfTrR5EBzZoJesEOLLsw1edZFqmOHHjnGVrzVV40efanF3VK1cwz954Wko8rr/+evPYY485upe9e/e+cezYsY8kiuybxSV2MSgIdK++AX4nx2GZTZtnNVz/fPjBfIk0LUJ67oES0zqWTi1FIBcIwNrSGkrLyXZ5OeeccxwpLTzPUx+OldJiB9RmPydR5IzQTgK75z753vdOoipOBgksW7vZXPL3t9CbblFKV23TuI759/VDTdWK5VI6LuiRN23baa557H2ru7TTtD700EOWs66T+FBabkUTU4VEcT11zk10gdg29M8eCetLF/wfFtuWxWVTpOf/QYlhV9EFkKegxPTLYnp0aRHwhABmfr4BJ0raXYXjLGAIAUfXmzRvhXn1i4mO4ipSYgKVK5Q1N53F8TPtA7uac3A5vhQUgkeA8xTd8O+PzDspjl/Utkkd8/h1Q3LOYXcterzRD4s935wE1j2vvPKK4czzDkId1GcXJ4rnu8Ul/qKwdLBR7DwoCc2wpOdwEAaPa4F0cDJH9h1fBHkA6bO3nyOigggEiQC+TmrhK+UiuzRdfPHFpnVre2PjXnTnfOC1UWa/RjuzQ5p0/1Wn9DF1qldOGie2k7226FOhEFwCVC7vHzbKPPn+9xgewLnHQacW9c3DGAulbOmk3xXBzXgxKVuGAeqozDmd8qN58+bmr3/9azFnO3gzfF1+f/CW//0jwSshbgeNm49jX/nfqZz/wtpBfxMOVrcVMtj5kb7HrI4r9Ef6yOQ8CJu2ZkAURCDwBDB09pUzZsw4KVlCS2AStWHDhpnate17BLw+apIZPnZWstNpnw2BVvCH+AvmIiqJiRTtwvRFqy2H3FRehnbn1H7/CNAauXbTdtOvc3PDyQmdhIa1q5qWDWqZLyfM824cEicX9jkOLS70gTumRxtHI0H36NHDsEcj6iy7lNVG8/cXI0eOXBofkYoLh9B3Phxe/NHGuFJc4k4xFr4mYzHcbzdsqxu3PQir7JV0FmQo0lgDX6mbodCsCULClAYRSEQASgutmEnL8sknn2yuu+66RIcftI09KG7CmA0c9lvBPYF7Lz3ONKnL76HkgQ7Qv0fPlQ1b1USUnFSw9s5autYsRo+7gm4toZyyAcM+tGhQ09SoUsF8m6KvjP2ZsxuDYw2xvji8fVPbhLDJqEyZMubTTz+1jQvlZi/89mjoOBAy5uNy4IpFVqAMjIDvS1coB1SgphfZHYS/XZHG+9CUNAWJodb3BtJ6A5qT2gQhcUqDCJAAnsdjseicjAYr1r/97W/JohzY9+g73+bc+BMHMpehlZP7tDeHtW9iezVaWO599SuzEC9AhfAR+Hz8XIxs/K5ZtYENCM7CGQO7mD+fO8ixpcbZWbMf66UR483zn/7sKCGXXXaZadLEvnyg+fsszHt0UFtrVpqKiuYKEyVGYHUZh+3/RgX8DRSF7lhP+uVY9BwZ+l8V1+mItA5GGvnZyuaklkhzTXSx3o5tmzKUDl1GBA4iMH/+/CfwZZLUceWEE04wN95440HHJfozbeEq8+DroxPt0jaHBKqgBwmdMcuVKW17xCc/zrZGaLWNqAiBJcCZoUeOm2uO6NLCsJuwk8CpH7ZistKpKG+5FOij1RJWJbtu47S4FBYWmi+++MIu++XLlSs3GQrMAcOGM9uW3Wk93A/LxlewwHSDVeMynHahh6f241R8UVyPNA+DLMA6eyk9DkXmROTBkdu0H4nSOfOLAJxya8CUerRdri+99FK7KNb+//t8gqN4ilQ8gfOP7m6ovNgFzrL9+Lvf2kXT/hAQoJ8Hx2tx2sOGWbri5N6YkZojdeRWeOTtb8weB83MGN7fUcZ/+OGH4+IjUnFx5lUUf5TP6+h9tB/Wi+ehAHTCpf4J2ePzJb06PRWZ66DEfIw80LH3eUgPr06u84hAIgLoMngytpdJtC+2rW7duuakk06K/S12uRxjVYyaSNc1BbcEOFLqOUc665j43PCfDEciVcgNApzF+66XvnDc24hzV3FQu4rlkxbf0MGhBerHmUts092iRQtH40nB2jIw/mRUXJz354o/MgPrUABYom+CAkPn3TczcEkvL1EFJ7sEwiYw+sc8gXycDWmEdQUR8IwAFJfT7E529tlnm7Jly9pFM29i1md1f7bFlDTCOYO6Gr6Q7MJydCN9Y9Rku2jaHzICP8xYDCvad45TzSaVuy8ZHDwLguMcJI749RRnDSaDBzvqWNzizTffPPDuDKTFpSgGKDAzsI0v/XZYvgzZWzROwP93RvquRT5ehyzD+gbIGDSH3Ys8HQ/JPVthwG9IriQPzUSV0ExEx9yk4bTTbHUbw3Fb1P05KUbbnZwR+GwoLk7Cv97/wewBc4XcI8Dm1lQGbhzYtaW54NjcMs7/PIt9WewD3oP2kdAyhOaiXrGI9BwLrMUllsjYEi/92Vi/CC/6O7F+BtZPhxwe2x+iZQ2kdQCawyixZNMqMx03cTocfX/A+k/I47bYTi1FIBEBFOYCbE/qDchmov79+yc6/KBtUzALsUZsPQhJyn9O7d/R0SzCc5etM5+Pp0ucQq4SePSdb0z9mlUMp3twEq4e0sdMnr8CQi+D8IelaHZevXGrqVeDjQ/Fhz59+hS/M24PPtC64+/73ESLS+gCXui0Qf0D0htKTG8sX4MUQsIcuiDxv4Eicw/y9yWEPZQmQtjT6hpIgRx+w3x7/Uk7momOtjvzkCFDDMdNsAs/TF9sF0X7kxDgIHPnDGKrtn149uMf4QdhH08xwkuA95czfM9c7Gz4r9KlSpr7Lj8up2aT/nnWMtsbWKNGDdOgQQPbePhIo8+rFeiYy0ZWvjTdhJE4yFEDlZuTp3IMXuz1R48efTle/KfiONYe7Oqda4FNZPxMmwTLzGRYZuhFOQ/L6XAGDlvzWa7dm2zlZyoufKBAJ0rEe++9Z049lcUiebjsH2/lzNde8pz6s3cQBiH7x5X2DtDzlq8zv7l7WHhM3f7gypuz1qtR2bx86zmmVtWKjvL8DXxDOIR+LoTTjuhkbjvvSNusHHHEEebbb7+1izcTETowUigtLolyBwvFKlorsK8nhKTWJYoX8m38bOaNOxd5fRB5fhsyCUrLRmx7AVIABY7KqEIeEICzGj9TOibLKgedKygoSBbF2rdj9x4zY/Fq23iKUDwBDirmJLz42XgpLU5A5Ugc9rC5+ZnhjroHM8scC2YoXvi5EGYucWZtatrUfrRd8Gi5ZMkSS2fhTy4aLL9Gs0prWCV+j/xNy4UHwCYPlbH/YsioaBPTBKy/i/zfA0XmXEg3SHVsU8ghAjCdDkR2kiqq7dq1M9Wr29/676cvQsUqR1G3j0dTDOt/WDv7UUBXbtgi3xa3kEN8HP1W/vHGGMc5uOGMI0yTHBjfZeHKDY56KTZs2NAJm3LoFm1F5Bd8TgZYITYhY09Q8NLuixc6x7pgs9ahkFwOVZE55vFQWGWGQuLzuhl/2ENrBpSaWfgSX4Z1eoItx/piMAvLeDlIsgKc1Q6zo8DJzJyEsdOXOImmOMUQGNKvo6PJ5d74arLZh9mFFfKPwLvfTDOHHtLQHH84O8cmD+yddtclx5rLH3rbcDbqsIZdhXsxEeU2Wwfd+vUdz/PcGCyW5aziEn+jobR8j/+UW6HEtIcvzHl4oZ+L/y3i4+XBOrtd04W7DxWaeKUGjOgjw7eX5TeD5RqwYn+2xdwOxWYJFJtdWFcICAE45hbYJaVnT7acJg/79u8330xdmDyS9hZLgGO2sDeRXdiMiSv58lLIXwL3vPKlNcFi7w7NbCF0adnA3AjLy0Nvfm0bN8gRlq7ZbKu41KvnbIaf6dOn06w5Ni8Ul/ibihc0HXz+QsGLmS/xgdh2NJYFkFx06EW2HAU+Cy2jcgyPABcurBBdZ4Mlhc4QS2G1oUKzAuu02qyHbICsQlz63Cj4SAD+LdUxXHZXu0t069bNLorh3EQavdUWU7ERjj+8raOeIF9NnGfoS6SQvwR279ln/vTMJ+b/bj3bNK9f0xbEOUd2M+PnLDejJvF7MpzByeSTtWrVcpS5GTNmWBpO3iku8XTwgv0B/ykPQImpB0vM2bBCnIH/R8TH0/oBAnWxRrE8x4pabQ7E+l/XdM4cRqEyQ6VmNRhT6aGiQ8WHys0GKj6w5OzEuoIDAvDdKoXntM6CBQtOQfSSdoe0b9/eLop6EtkSSh7hBAemf57h26mLkp9Ie/OCwE4or7c/P9K8cMuZpnQp+2/lm39TYDhxIee1CmPYtN2+eq9YsaLTrNEVwuS14hJPCkoMX6aPR4X29dshfDkopE6gLA6hm/hBruJRq81BZ4tuo2IzC7IEwuap+Cd9C/5zP3uJ8R6thAK0GsflYvdv9hLip0cNCBXE2lGhJcziCSWP66Vbt26NRfJAh7c6deokj4S9tLgouCPALq6dW9i3z7Ot/yeHI4m6S4mOChMB9rb5D+apuuoUGv2ThzrVKpnrhvY19w8blTxiQPdu31lom7JKlRzPSVyFJ5PikhjpOGweghckx4Y5E5YFKjADIWUSR9fWNAnwZd0vKraniio7tNhQqdkK2QChckOHbH6WsKTsQVPWTlh0qOBQEeJ22um5z0ulpwTOVw7CZ4MKWwVIKaSRS27nNu7jfxY69gCj8H/RbdjkLOzbt882YufOnW3jMMK0hasdxVOkXxPo0aaxI6fcrycvMPzSVhCBGIEXPhtnBvdqY1o2sG8mGdq/kxn25USzeDWruHCFHbvsn3s3FhdWvAoJCODlw0/RJyhQYvjSOQbbDseSajJFih8gZCnQKkEpNiRpyir2mLDsQFORbVI7drR3GF23ebvhjLYK7giwl4iTMPxHGhQVROAXAuwtxNnB77v8+F82FrPGUZnPPerQUFpdduy2t7iUK8dvPEeBH3168TpChUhQWPhl/25UDBSZalinY++RWHaHdIFwm4IIBIJAhw4dbNMxfwUNVQpuCXRt1cD20M3bdpqxM9gKqiACBxP4Yvw8c8Exa0z7ZmwZTh5O7N3eUnTW4mMjTMHJbPMcKNNhsCLyJ+LwAEWLIwCFZTPkQ2y6HjIATpO1oMwcjuaJP+P/pxAqOgoi4DmBypWtjw7b8zpRXBZggCgFdwSqVSpvWjWyN/N/hR4h7HKuIAJFCfClfvf/fWHNzF50X9H/5cuWNpyIMWzBieJSooTjhh9LcVFTh0dPAZwm6XTwU1QehCJTGv4xrfC/GxScAVjSR8bedo9ICiKQjAAnJdu2zb55x4kD74IVUlySsU62r3/n5qaUgy/FURPnJzuN9uU5gTmYKfzVLyaaiwb3sCVBq8uwryYZzi4eluBkMtEUFBdLw6Hi4ljVCQuoIKQTigwdQGdH5Y1omtpi+RfImRDHjXrRY7UQAYuAk/Zgeuk7GRth0WopLm4fq/6dW9geumNXoRmHrqwKIpCMwHOf/GSOP6ytqYsJGZMF+rpcf3p/c81j7yeLFqh9JR1YUyJOtJv/5UpNRVm4u1RkLoCUR7NSV8hVWH8eMg1i300EkRREoGxZdlRKHpo1a+aot8vK9WrRTE4y8V7Wxb3aNk68M27rD/BtKdyroh2HRKsJCLDH2aPvfJNgz683Hd6+qTm8fZNf7wjolnJl7Bt2CgvtHXij2bO6KNmfMaAwwp4sNB9NQR4oTzMvaFqqjKYlWmTaYV8vLCmHQipAFETgAAEnPi5OZlvdu2+/NY/IgRNrxTGBdk3qmuqV7YvmGHSDVhABJwRGjptrTjuis+npQCG+8uTe5seZHPIq+IG+OXZh9+7ddlFi+60xvnhGNRXFkGRxiaYlOi2Mj8qrTEp0lNROWG0HpaYNuvd2xTp7L9F3xjKZYamQZwS2brW3krRs2dKWysr1WzThny2lxBEKutnzLcTw7poDKjE/bU1M4N5XvzKv3naOqYj5r5KFzpjH6OQ+7c1HP8xMFi0Q+ypgwki7sHOnpY/YReN+q0uVvSrk5FSK4wuBqMPvZJycciCgiYnjI1OhaQmFpiUUGo40xv+02Ng/JYikEF4Ce/faj5/nZLbVFVBcFNwRGNDFXnGZMHeZ2brD8Zeku4ToqJwisHTNJvMsxnahH4td+APifD5+ruGozEEOVSvau3NKcQnyHfQobWhK2oFTxXowHTgrLDRloMi0w4YWWLaAQsP1NlHhSFmy0gBC2EMpB/ObOBnqfyPGF1FInUDlCmVNq4b23aDDYspPnYCO8JPAG6Mmm7MLupgGtaomvQybKjmi7mvoZRTkUK1yedvkbdni+CPqgMVF47jYYg1HBFho6Lg0NSqJEt0HG0+BDIbQf0YhhARKl7Y3lNauXds2Z5u27bKNowi/JkAzPXt32AXNTWRHSPsTEdgDZ+7/fvqz+cv5RyXafdC284851Lw9ZorZA3+1oAaOd2QXUlBcrBEz7WtAuytqf5gI/IDEUm5FcxOfpmaQ+pB6XIclpzmWFG7nthqQUhCFABFYtmyZbWqcKS6yuNiCTBChm4PRcjmTb5jG2kiQTW3KIoGPvp9pjevSpE71pKmoV6OKOQ7dqIPs61Ktkr0Tu1PFpXHjxtb4DVJckj4WubsTSgo/t9k9m5IwRJue2O+OikxTND81RPNTTazTTt4gKmyC4n81QwFCJsKmTZtsL1Otmv3sE5tlcbHlmChCFweKy9QFq4yTEUMTnV/bRIAjLf/3k5/NnRcdYwvjN0d1C7TiwhnU7cLmzZvtolj7+/Tps/6RRx7RXEWOaOVppGjTE/tzJu3TCesNHYJpnaFSQ4WGVpwGUI64pFLDUZXYYEvhG5XCecy5Xc7EgOB1qFDB/itnZ6H9rK1epyvs52MDUfum9vPKTJ6/IuxZVfqzTODTH2ebK0463NbXpU3jOqZHm0Zm/JzlWU7xry/PwedqV2NVnzxs2GAZUpJH+t9eNRU5oaQ49gSgoPANuCYqs+yP+CVGtIdUzIoTU2yo7NSEhac6LDxU1+mWTuHbOF7Y3MV+g/HbuB6Ln20rENtidkeF6/FSdDsdrq34mO9qV0FBAf/zM4ReaxR2l+f+LXfffffw/fv3N8d6scHJNPFB741QbOayuKNJ3eqmcgU+XsnD5Pkrk0fQXhGwIUCry/99PsHcfE6BTUxjziroGkjFpSasLaVL2VfDa9eutc1jNALfM7K4OKWleP4QgNLDFzTF3nEjxSSgqasklB8qNmwSjQl9drhOS09sG5ex7bF9/E+PN/Y1pFA545LDoMa2xW8/sA9Kx25Yq1x7y0FZM5QkwdbvyJniIotLEsYJdzmZxZfDl89cYtWvCc+hjSLglMAH380wv4PVxW6ww4FdWxg2yazfwqo0OKFudXtrC1O7bt06J4neAx+XA4qLvXu8k1MqjggEjEBUeaAvT0YDlDG/r2f7ye9Ecdkd8PEf/Ibo5vztHDQTLV272Wzb6XgIczfJ0DF5QmD3nr3m3W+mmUuP50DqxYfSGCKBA9K9OIJjmAYn1KtZxVFiHFpcVvTt29f6ILS34Ti6rCKJgAhkkACtSElDmTL2rkOaQycpwoQ7D2nEVszkYeZiWVuSE9LeVAi8PWaq4fQcduGkPh3somR8f+Pa9p0EmCiHissBJx4pLhm/lbqgCKRNwNZKmsI08WknJp9O4GTgudlLpbjk0zPhd17XbNpmvp6ywPYyzevXMB2a1bWNl8kIjevYKy5sWl250t4nDM1EUlwyefN0LREIIgHnM8kHMfWZTxN9COo46CEhi0vm702uX/FlNAHxBW8XTh/Q2S5KRve3aMB+F8nD0qVLjZMh/9EVel7sTLK4xEhoKQI5REAWF+9vZpsmdYwdV75cZskx13v4eX7GaYtWm/krrJ7ASUkc27ONKVfG1nc/6Tm83NnSgeIyc+ZMp5c8EFGKi1NkiicCwSFg21TkLKn2X3DOzpMfsZqiK7RdWLtpu9kqx1w7THm/H8ObmIqYNblu9cqmWb0alhyC+a/4om+IOYrYjZj744OTua84E3OvdhwzNPuhCoYNsOsNxVTOm3fAkJI00WeeeeaBiOz6qSACIhAuArYax549e4zdZIxlSgfnyywM+J0oLotXbwxDVpTGDBGoj141HZvXM2wyaVEfSkntqlZzIwdlczK+yV7MW7Rp+y6zGeJkfixmq3f7ZubbqYsylMPiL9OglrMeRbNnzy7+JAfvmR/7K8UlRkJLEQgPAdsBWNhmXL588snNypVR8U/llnPwObuwZI39dAx250i0v1L5sobX57gYfOnxS7Z82dKmLJRParE7d+8xOyDrt2w3K9dtNYtWbbBeeInOpW3+ESiFyTf7dGhmju3VxvRs29iyqKRztdK4v7zfTkafjV2nV7vGsdWsLqmkOQkzZsxwEm3LWWeddcDrXTWXE2SKIwLBIsBRd5OGXbvsh6+R4pIU4a92NnJQES/1QHGhMtIdQ7h3b90IvUTqmVYNa1ovLjv/mvgE049z9cathlMPjJ2xFF/gC83GbRx4WcEPAs3qVTen9O1oTurdztRy4MDtRxpi56Rlh2WbY8BkM7DJy0mYPn26k2hz4iNJcYmnoXURCAcB29HNnHjplw2QE18YsNfHTLx2Ydk6Z5PFFT0Px4c5onMLc1j7JqZLywbWi6donFT+04eCzRT1a7Y1g3u1tcYBGTtjiXn+05/NlAX2XU9TuVY+x23TuLa57ITDzKBurRw35fjNi01KbKZZtCq7zZYNa9l3hV6/fr1ZtWqVLZLevXtPHzt27IF4UlwOoNCKCISGgCeKS3k1FTm+4TWrVDDl0DRjF1at32oX5cB++j6wF8iRh7aynUjvwEEuV+hP0b9zc9O3UzPz5YR55qkPfjB+NWu5TGKoDquBprqrh/QxQ/p1DIzCEg/wf06x2VVcmta1V1wcWltMkyZNpLjE32Cti0AICdg2FW3fvt02W5Ur2s4cYHuOfIngdOjylRuSKy60grA5gaOcOhmcy2u+nK33mB6tTUHXlhgefpz57yc/OxqV1et0hPl8/Ts1N7dfeLQ1N1BQ87F/v63/vu9Jb4rmM7swZcoUuyjWflpc3nrrrQNx7T8hDkTVigiIQEAI2Dor0ARrF6pXTu68a3d8Pu13MvAcHWTZ+yNRoA/Excf1NCce3j4QX+jsUfbbEw83/To2N7c8+4mxU7gS5Skft111Sm9r3qBU/I2ywakwy/4t9NNqUNPex2XixImO8NDiEh9Riks8Da2LQAgIdOjQYYudJ76T2VZrVqkYgtwGI4lOenWs2/xrKxcdbC84prvVTBPEl10HNFe9dOvZ5oZ/fWSmY5AzhcQEeO/uuvgYc8Lh7RJHCNjW7VCisxnos1UKzZN2YcKECXZRuH8zLC5L4iNKcYmnoXURCAGBOnXq2DZeL19+YFqPYnPUyOEEaMWeII921K1R2Ta3qzdus+JwagC+4E5Ek9AhjWrbHpftCP+fveuAj6La+kcg9BYg9BZ6lypVaSogdsHuU/Dpe5/1ib2goj7UZ8HeRUUFEelSpSMd6b33UEIvIYSQ73/GbNgkO3PPbnaz7Zz87m9n7j1zy383M2fOPYUF2C/73UxvDp1JExZuCPZ0QnL8Z2/vGDZCCwPIW4LBpKa1KhqHP3HiBK1Zs8bIh/vdwqpVq2ba+1LBxQibMigCIYeAcR9o69aMWE22kw+GjYXtZEK8gYURE52Fer5f78up1xVNKNw8tgrmj6FX772K8ubJQ+Pmi+JqmOCImPY7ujalXh2b5Gg9CYdP0HqkgtiecJT2HDpGBxFhmWPunDyTTKcQadllk3IJlBRsNF8A30dRxO4pge1c3tJl4ZJfNJrUrECN48sL5pLpOS/g9y9Ly7rm6L2LFy+m8+fNLtudOnWa727fwjNVwcW/35f2pggEHIGyZctmBGKyG4wTl5koDsHM2NvkfOoFE2vUt5csUsiIQfuG1YgNNwNJZ8+l0EFodhKPn8EDL9mK1cHbGBzqPRaeTyyMFi/sm+0S9/PcHZ1o055DyLd0KJDLCJu+eSvt8Zs7eD1f/p9asHYnzVyx1fo85GEb0a7TM2d5m8ezGVtPaPIkgktqkI1zJXNcsmSJHQSZ6rFNtEwFl0yQ6IkiEH4IwMbFKLjs3LnTuDB+u+YgUeoWa4SKihcxe2D524aFA8at3LLPsj3ht/UdeFvnoHKmd2mON9O0dkXq2CSermhSQ+TG7UIgP972X+/Tje767zA6h3Dz0Uws1L98T1dRaH4XTqw5GTF7FX0zYXFAAv5JXPJ5LilB/O6qQHhmIdpECxYsMLFY7TDMzWYIoxoXEXTKpAiEFAJGwWX79u2UmppqzFdUBbEWVHAxf7cccj83iHMdzV213Yq1smb7fqOQ4mlO+yHcTF680SolihSk27s0pbuvbGZpZTzxZ63jvDp9erSkL8cvytoUVee3XNHYKxuldTsP0Js/z7S2hAIFVNFCst9hMKPmNkYARRNxFnX3gHIO/AkI9b8va7sKLlkR0XNFIMQRaNiw4X7TFJOTk2nPnj1UrVo1R9bKcRxrwaydcewkChqzZur155L3HDpuCRkzlm/BNk2iP7u23LO/HL+Qxs1bS6/37UYSo0mewD1XtaBfZ64KiNbArwsMUGecB+r+Hq3EvQ+fuZIG/TbXdts1H7Sb1cqXtOxUWBvB7sJnz52nfbB9YQE1OUWm3ZJuA/693SSevl8ZOfKzidgG79Ah83Zk5cqVF/F9LCux4GLSPGa9xv08uKbL7jPRY0UgShCAlb3ZZQhYcLp4k+BSTZA4MEpgdVxmYT9rXDjOxh9/bbEMYZdt2pOjm7DjxNMbOU7LvweNoo8evYEuq2c2nOQHd/fL6tKwGSsk3UccT4/L6lEpgUE2L/zrCYs8aqfYqJbTLXREsL9LYVRrlxuM4/9MWbKJPhkzn44Z8klJ8iCxtiWY23ycZ8tEQm0LtW3bdkFW+xbu2+xo7TyDWs7N2qoIKAIBQIBVp0aLWhZcTFQd2wJKZgT8pXHhWC+fjp1P1zz/Hb3y/VT6yw9CC2cklri/ssHoy99NpaMnz5gXDI5uyHAcrdS7Y2PR0idhSy7rlhoH93vkxnY0/r996OnbOlqCop3QwoOwYfWNHRrSJ4/dQCZNAGcHN5GneEKma/zVztqk+PKxxu7mz59v5GEGGOYu9MTIGhcTVp6uc9XFv/LKKxUHDBiQbQ/KxaCfioAi4F8EOnfuzCH/+X+uslPPGzaYY3JIbjJOY0RLm9Qo0g6PZGwLfIsEhz/9sSzHb8PsscFxYtg1lg0hWRvENgMn4WV04Mgp2rrvsJVIcQGSKmbNVs0Ptf4QXj6G5sVkTMy5lNhLibeyoomq48Fbp0qcccns3fUWYt9kpZfu7oIYPvWzVhvP61UtS3Eli8JV+u94QJ4ukMQT4nkFizjgoul3xXObM2eOZIop0Lgs9cTIgotnvytP3J7rOqJ6mOcmrVUEFIEAIcDqFEfBZf369cahOSIsG/xxLAklewTycIANH4i1HGP+XIPthMWI2yHTdNgNw5qVl5Ejh4WWrA8HPmf7By61kbGYt3lYmFm38yD9PG05tqU24fzvnjlLNAeau7at88OV++Sxvvo9uox0OyHTs4S+gO3Q6bOZ/29qI+AgY+YLHcHvg2O7OFFZCDYm4hgxwSIWXEzEti2myN/pfaxq166dx38a/m80Gvo5TQTalqZO7dqmCCgC/kegd+/eRqlEIrjww6l6ed0ucvqG2C0WMHlNc1dvp94DfqK3hs3KsdDCg9/W+VLrTT6r0GI3MeZjrcnAf3anr5/shbf5i9sMn49bQOcEBqGckDHaqGUdx/cBCw4WQicuyq7R5CSa0u8nK65sT+QUf6VYoQIk8W5z0thkHdPf5y0E9i2sbWGh2kTYJppnx5OnY8eOK+0ahfU9hHzKpggoAv5DIPtdM0vfHIQuKcmsUK1VsXSWK/XUHQFvH0T7YQjb77PxVv6frFs17v16e9ymflVvL8ngZ2+ir/rdkuESzekJJi/ZmNFud8Cu0dEUYZkF1CY1zJFp/1i6yaMH0dKNu40Gtp6wXoc8UbyN6ERlYy8Knk58exODs7XH0aVrCu4lwm0iNsydbbfOPAin+71do7CerZgeF/IqmyKgCPgBAbxwGN09+K1GYqDboFpZP8wocrtIvXBB9IZ4Gttt7BnS69UfaQ5isfib9iSeyFGXVeBB5q5B4S0kyZsvB7GLFoqH9lHiQfbHX5s9QpIEW6Y3fpruVQA4jtvz6MdjKcUQwboCgkVKaHvCEQmb33k6Na1h1Dbx723SpEmSsZOvv/766XaMebDVw/9hMhNfu16IPoCRrswM274PbVEEFAEhAgj7z4KLUd+6caP5rZrDmivZI8DRUFPOG5246MXBk+n7yUut+Bz2vfneMmz6cq8eiJ5G4u0GF7ERL9vAmKhtA981Paa+Q61dojFgd+PViL1iR7NWbKO+74ygXQgmaCIWHp+Adu746bMmVivKtZEJDNuCJriYbYN4+3rzZs9CX5a1LYATgq3qyLI4w9vb2CwXeX0KAehtry/SCxQBRcAnBBBNkl+/95gu3rZtm4mFeDsgDww/lewR4BxBwabd8O4ZMvWvHE1j+ZbMIYAWrd9l7K9+FGnkJF47vP3nSopoB956CIS3vT7U8jpai22gC9DauYh/S5zD6F/vj7KC1rnqTZ/lkMrBRJy/6uhJ8/awqR9v2zmgXrNaZsPcP/74Q9Q1bPhst4m4A/YqImwXjZ89e3ZOBY8eEICuRj9TuU8lRUARCDgCqzGCYzQxieDCMSaqYhthx37zG2LAVxSiA7D3SHGEz3eiogUvajOc+HLSxjFD6lYpSx0aV/e6GzYmzaphWYFcSCYqWbQQIr4Wp7053KoyjRMK7Rw0zkRsHyQhzhf025zVVimEgH7s6szbjmwD5WSEa9c3G/6aaOeBYyaWgLSzDRUHLTSRVHCBYe4sT4HnXP1bGhdoS9ajwhx/13WVzSeEltdsmrRaEVAE/IwA3krWmLqUCC7cR53K5rgVprEiuV3iLi7NI5MTnC7ARuCZLydYb+ze9DNn1TZ6/cfsJgOcX0di59KgWnRsJ0q8dk6e4TBK3hHbvnBOMBb+fBFaeLRysWZXaM51FQxq36i6cdhz584RZAQjHxhOwzDX0XzFElzSexoj6dHA0xpal+sMPNqsCCgCfkAAeTxWmbqRCi51BQG3TGNFcjur4E1URJgAz9SPqZ3DuT/z5UT6ePQ8oz0N22Ow6/NTn0/waB9z7NRZSjh80jQkRct2UUzevEYsOMdQMEgiuARLa3q5QAPI2aBPnTJrq3Bfm4P4LZkD5GQBPENwgXHtZ1nafDqFRPXtzJkzq/t0sV6kCCgCYgTwVmLUuOzcuZM44aKJVHBxRihroDFP3JK3dU/X+VLHWpIfpvxFN/X/gUbMWkUn3Iw7uY0NQ9lQ+OaXh9C3E5cQa2rsaC20LiZSjdxFhHyJ6XPxat+O2CWfg0WaKBgaF/ZWq1ou1jQ1mjJlipGHGXBfMxrCZGxKYbuIvRQWobTmi3NAcbAGngjhpQM+g+OXlYPJ66WKQLgggDcT3uJlq9EYuzmfP3+e1q5dS82bN7djsepVcHGEBxFSGWZnyk3BxTWTQwjh//Yvs6zCcTQK5o+x4ohIBC1XH2xI6u4m7ap3/6yDaLzRQGyXYiKnvEOma31tZ20L50AyUTDSM3QQbBPxvCdMmGCavtWOLfA/nOxbmClD48In0LoM4E8/UH0ILePRn26c+wFM7UIR8IRAujp1nac297rly5e7n3o85uRosTDCVPKMgEQQCIbg4j5bjubKwcckc3W/bvMes3kjZ0pmwSjS6TQyNZsot7YE3echCQLImrbdh3LfOFdiKL5r1y5atcq4s81L3gePSaMmOZPgAq3LJFy4g6/2A7VDf2shvESHqO4HwLQLRcBbBGB9b5RKJIILj8sqXyXPCJzJkpPGE1fhgraKL0/sIVO3aU+iaC6cAynS6eQZczyVYAhw7NVloiNwgz4j0Aya+vGmvSgSfEryE02cOFHULe5nIq/kTIIL9wzj2g9FI8iY4iC8DMe2kb7KyfBSLkXAKwSqVKniN8GFs+IqeUZAosUoXCC/54tDvJY1NZzgz0Q1EO8n0inxuBkHSaJDf+MkGXNvELJ4s7ZFsoUl3SaCfYtoPymb4PLqq69+CtDH+RH4Ltg2GgfhxWxZ5MdBtStFIBoQwH6wUXBZuXIlpaaa9+6rlVONi91vhr1zTFQgxmyDYOojWO1b9pq1LhwOP9JJkqDwb1uiDPPQXIFEEhjvwLFTuTIX90EkmbQ5X9qMGTPcL7M7Pof7mW8aFwgZvMl3A4pMt2M3hcz1V6JfyC4z1eYlMy56pgjkCIG4uLi/0IGj6+Dp06dJsl1Uq1LkbwX4CjbH4TARG8aGK20UbBfVqRL5vw+JVw57+OT2tllFQZ6ifbkcILAEAjJ2aBxv/MmPGjWKzpwxa7JwL5sMu70Txg7BkE3j4roIQsb9ODaL4a4LzJ+tILwsQL+1zazKoQgoAhIE8D/Fd4SVJt65c+eaWKi2Ci62GJ0VGG0WLJC7b+G2k/WhYdNus4FuzYpl6BIf+g6nSw4dOy3KG9QwlwPySaLmJhwWPfP99nVc2aK2KFrukCFDRGPefffdw0WMYLIVXHBD3A97l/+TdiTkq4l+l4D3DQgwuqEuBE3ZFAEnBGDQttSpnduWLjWyICR5ESpWOPBh601zDcX25BTzVltBpE4IV5IELuOQ7hy2PtKJk0+aKLcjCXPaBRMlnjhtYvFre5dmNY39HT16lPCsN/KBIRX2LZMljMxjK7hwI4LJ/cYffOxHKoG+XoQAMxYeR5EuwPsRNu1KEfCMAAx0+WXAkSSCC6vAc/uG7DjpEGqU2LjkD2PBhd1oHWLUZXwTErfcDOYwPZBonxrF514KBP6/dM/qbQfrcURBzi3i0Akt6lQ2DsdGuSkpZhdzdLQabtDiuG+OggvPClqX/+DDvEHFzN7R5fA4GgtpLPI3Tr3DRbkVAa8QgEGbUZ3CqeSPHTPHeGicizdkrxYZZObzqRez+9pNJW8YZ9jmXEzHTyfZLS2jPhoEl6yJKDMW73bAoQM4tk1uUOECMaLs7Sd8yKHk6/y7NK9J+fIaxQcaPXq0aAjIGea9bLeejCND67ICnf4T19jHjHbr0MvD66B5WYP+2RhYSRFQBHxAAFtF63CZo56Yg1NJtC6N4sv7MIPIv4Sz+poor+BGbuojmO2SqKsVBEaiwVyDP8Zeu2O/sRvWgrSoXcnI5w+GQhBcJHRGYIcl6UfCc1WLOka2s2fPisP8d+rUyb+CC88OwsswCBcDjTP1jaEc+h+DS3/E1pHZRNm3MfQqRSBiEahatSobYKwwLXDhwoUmFlLBxTNEqSKNi/E90HPnIVLLmYtNJEn0Z+oj1Nt3HjgmimvTql6VXFkK2xZJKCmXBBd2B29Wu6JxSny/YY9GAaVBcPlTwJfBIv5Pg3DxEq66BSUx42r/HtyNreKm7eMAAEAASURBVKNt6PIXCDAV/Nu19qYIRDYCku2iRYsWGUFgI8AqcWyGpuSOgETdHO4GewePmrNER4Pgwt/78i373L9+j8ftGlbzWO/vSsmWDI95XhCryR9z69q8FuXNYxYdhEa5PKWV2HlJ8GZu5tEz9zYKmpcrUXU0c7Vfz26DALMB4zyMhXs7P79ORDtTBMIFASRcNKpT+A2It4xM1KiGbheZMIrE9gNHzQHMJIHQIgGbJRt2G5fBLso1K5Y28uWUIQ+2pSR04YL5f1vSj4mne6u6JharXSq44KVLZgjjNqrXggE0Lxwz4gW3PgJxWBzjfAIp7JtAdK59KgKRhgBcCY3qlMTERNq2jZWaztRY7VycAYrQVknk1dLFcscgNdgQL1q/SzSFzgKXYFFHDkypQoEkTy4Yh3PIhMaCF5sTJ06QRMPLy4bgwt7LXpHXggv3DknqK3x85tVIvjH3wWUJ0L4MwJjFfOtCr1IEIh8BuBJuxyoPmFYqsXO5tKZ5/9o0TqS15xW89V4QaLNCGRdJviKO8yPdugjltZrmtht5f3YdNHvhdW1Wy9RVjttTzptjCPEgBXLBHb91varEhskmGjduHJ07d87Exu3sBs3OBV6RT4ILNCFsYv8wBIrnvBrNN+by0L68jDG3YLzHIMCEZyYz39auVykCYgSwXWTUukgEl1qVShO7YCpdREDiMSQx4L3YY+gdcXZhE/FDK7ZYIRNbRLT/uZrfBZyJ02RUDXBW9TPJIgGACiNTc6CpdYOqoiF++eUXER+0Lb+KGLMw+SS4uPqAQPE2hIl/4FxkOuy6zsfPshjvw3QB5mEY8KoGxkcg9bLIRADbRTNNK5s2bZqJxTK8a1U3dzwmjJMJEQaJlkES6yVEluNxGonHZbfxUlGyXTR+wXqjTRgrH25o39Ajnv6q5Bg7Etu0YoUCK7hwZOj2jaoZl7VlyxaaPHmykQ8M5x566KHvJYxZeXIkuHBnECbYjZm9gL7L2nmAzqtgzE9gwMtR9n7F2IH91QRoEdqtIuBvBPD2YhRcNmzYQLt3mw0PL6uvgov795NfkPn5nFCl795vKB2zO+05QRbs4lGSFmIzEk9uEORwuqlDQ4rJlzdgXyULxGcF30sJQVqAnEzyqpa1qXjhgsYuPv/8c1E2emiIJ0MRscfYoQeGHAsu3CeECPaj6wvty6P4FMX35etySPlwfW+MvQqfYyDAtMlhf3q5IhDWCCAQ3RoswBiMY968ecZ1XlpTIxK4gySxH5CkBXDvMxSP+e3eRNGUz2rGsi0mOKg4siRf0STeyJcTBkk4/1IB3sK7vl0D4xJS4ZI9bNgwIx8z4EVruIjRA5NfBBdXv6wJwfEA13kuffIaboAAswCfr+XSmDqMIhByCKQHojO6Rc+fP98499qVy6idixtKEsHlnCARo1uXIXl46qxZcJFGcg3JBXo5qWl/bRZt0/RsU8/Lnr1jlxhOB3ILj+14mtaqaJw0b0UnJIhCspyE4MKBZ30ivwouPAMYz74FzcvLODzv04xydlF/XM5eSO9DA1MzZ13p1YpA+CGAm4FRKpFoXDjAVBPVumT8ACTRSyXq/IwOQ/Qg+Zz5ti0R4kJ0eV5Pi72LVm/fb7yuXcPqVCaAuYuOnDSnC+SItoEi1rZIvIl++ukn0RSwTTS6Xbt25kXZ9OZ3wQV7VqnQvLwO4eFyjDkdhT2QcpPYC+kJaGA2YdBJEGCugzDl93Xm5oJ0LEVAigC2i4z7QCtXrqRTp8zBxprnUi4W6dqCyVdE4LFxRqCtCOYaJGNLtrsk9j6SscKFZwKMdE3Exts3wNYlUHT4hPkZH1eyaECG5/gwPdvUN/Z9/PhxGjVqlJGPGZ544okfRYw2TAF7oEN4YJX1lRBgeuBTpDuymaOv1by27hBgxkGY2orjjyDEdPO1M71OEQgHBOBZxP93jq/NvA+9YAHvrDqTCi4X8ZEILqcjQHCRGBjH5A2cIepFxEPnaCq2iySxVG7s0IikUW69Xd2hY2aPr0ClY2gPbRIHnjPR8OHD6cwZs4CFfvZCMzzD1J9Te8AEF9egEGCmQuPBougPKGmu+lz+rI7xHoUQwz5aOyBM9YcQUzmX56DDKQIBRwDqV1alrDYNNGfOHBMLNaheLleCWhknEgIMRQSuppEguEjcbgXxx0LgG/PfFE6eSaZV28zv3hWQAqB9o+r+G9itpwNBzCN1o1CT9O2337rN2P4QWuGhsMfL0U5MwAUXnj40Hpzb6D4IDNfgczfXBZGqQZh6DULMDsxhAgSYR1DMerAgTliHVgS8QUCyXYT/AWOX+eHiqeH//4ZJ4gYq8cgxgh4GDJfQJWEwS/9Occ6q7aIOb+3URMTnLZMkjxRrRfyt8eHcVB0EwtiaNWto8eLFomVB25KjbSIeJFcEF9dqcLOcDCGhLc43uuqC+Mn6zmsgwHyMsg7H32NuGtQuiF+IDu0fBLBdZFSn8E3m7NmzxgGb16lk5IkGhpJFCxqXefy0GU9jJ0FmkBhgpgVNcR48cKSCSxtElmXNi7/poCABZj5s4ZUp4V8D3ZsQXE8SNXrw4MHSJS998sknjRphU2e5KrjwZCAk7MVHPWhf+uLTrH/ji3KH7sXcdmGowRBgrkIpkDvD6iiKgH8RgOAyFz06bssmJyeLkqA1r212gfTv7EOztxJFChkndvyUOWS+sZMgM0jsV1LO50jLH+QV+jb8buQtWiPwLmLBr0tz/+cv2i/YKuKVlfOj0JQXRrmSbSLOSST1JoK2RSzhOH1TuS64uCYD7ct3sH2pyfYmqDNbHrkuDOxnSXTfBwLMVBSe00LM73kIMQ0CO6z2rgj4DwEkLWP/TfaqcySJnUvj+ArEW0bRThKNy7FT4a9xiclnfiSkwLg7GmnkHJmioGsABBfehuTIxiYqH+s/bc8Vl9aAUa7ZU2n06NF06NAh09S4PQneRMMkjCYe86/U1EMO2mH7kgQB5g0IBiyifolyLgfd+ftSvlu3xvwGQohZi2N+ELyDud6IomFF/Y229udXBCBwTzJ1OGmSkYUK5M9HretXNXUV0e38MJdEJZW4rIY6UBLvKckDNNTX6cv8Ji/eSLsOsLmmM7FdWDNBsDbnXrK3SjyLKseVyH6hDzVsxdSnW0vjlRcuXKC33nrLyMcMDRo0+BbOA+aU24Legiq4uOYHwYDfEP8NgaAkbriP4Pigqy2EPmtjLk9hrqNR9uB4CeaKKb/SAiUkcAwhrHQqQUbg+uuvN0olnCk6MTHRONPLAxzO3DiBIDOUxVtnHgTkM9H+I5z5JLxJEs6fvWyikVKQM+jbiUuMS+ftosdu7mDk85bh0HFz7CV/CS7tYJDLXoUm4pefFStWmNi4/cKrr746SMIo4TH/N0p68RMPBALWwHyKLaRaEAr+i25FTuF+Gt6bbhi3lpjrq5jzUhSe52zM+QUIMa0xf9Wte4Om8vodAdi5cARdR90yu77OmjXLOHarutEdOaBMCXMMC8ZSml3ZCHiQGNjNWSK4RIv3lKevYerSTaLvuXGN8uTvOEhHTiR5mlKmuvJ+snG5vfOlmfq1O/niiy/smrLWz8YW9raslb6eh5Tg4loEtpBOQih4CUJAR9SxMW+oExvyXoE5/xdCzELMn33n7g31Sev8IheB9Hguy0wrnDFjhomFqiBPib9uiMbBQpCBXUJNdAJaCEnwNlM/wWwvgWSBnOrBRMciwAjZtEa7dta6jJjFeX3NdF/3FmYmLzgkYf/98X9avVwssXeUiXbu3EkTJ040sVntsG0RSziSDs2/UkkvAeJhbQaElyooPTHEnAANE4huq6DT71FYp7oIZSDWcBU0Mf71VUPHSoqAHQKw4J9p1+aqlwguzNsyirUuFUsXd8Fl+3nwmFmNb3txiDRIc90cPWl+8w+RJQVkGiNmryJJeoe2DapRg2pl/TYHieAi0Q6aJnQbtC0St/ivvvqK2MZFQPshuIwW8IlZQlpw4VVAeElDYbGuIx7+bfDJGSVFaIEv2JQfE7gM5XmsYWp6ID4WwDj9QB+U6jhWUgQCggAC0c0wdbxx40bau9es1Izm7SKJ4JJw+IQJ6pBvLyfwSDkPj6JIiFeTky+DtWuj57G/hjPxw/+fPfn27x+SeK2xcXVOsncXRYTonm3N8ViTkpKIBRcJ4T40GJFyHbetJf2484S84OI+WTz8WXtxEx74DfH5MspK9/YwOGZB5nIUTj8wGIW3lHag/Iw1PYzSCSUO50qKQI4RgJ3LPHRivGFItC7R7FlUQaBx2ZcY/oJLhdJmV9qDyJlzAfY80U5Dpy0X5S+6vHE81a3in1u6VGDMidblBgScK1wgxvj1/vLLLyLDfnSU2q9fP5mEYxz1IkNYCS6uaeOBvwHHr6M0xYO+Kz5/d7WF4Wc1zPlOrOkTlJkoB3DOrtccyZc9rdhryXxHCcOF65QDi0B62vh1plEkggvfDGtVKmPqKiLbJZFQ9x0Of4+iKnEcxsqZDkSA55TzCmWtHIJ/EtyjTcRalwf8pHURCy7FfbNI4IBzEqNcNkT/6KOPTEu32itXrjwJRrk7RcxeMIWl4OK+PjzoWR1+HR7udfDJaG5GCedXAnahr43CkXw/R2GvJX6dY33+uHQX7Gux3vI4V1IEHBHA78VooDt9+nSSJNeTGOw5TiZMGyVZdxOOhL/GpSqMsE2059BxE0vUtH83eSmlCmw8OiKQW30/2LqcEKaUKCFIT+HpS7qqRW2SaBc5cKXQBZpgZ+dXo1zXvMNecHEtBA93FlgeR2EBpgfKIZRIoopYzHXpLtjjsd4EnLN25ieUayDI5MOnkiKQCYGGDRsuz1Th4WT37t20YQMrMZ2pTRQGoitWqAAVht2AiQ4cCX/j3BoVS5uWSbsQ+l7pbwQ4DcDUJawcdybWuvz7ujbOTIJWafZxSUJQT8PdfVVzT9XZ6qTaFly4F0a5xnhS2QYQVESM4JJlrVM4nQAe5n1Rz/v8kUplsbC7UCZAkOFXocUo36K8iLXfiXIpcCiEc6UoRQDRKo0aF4Zm6tSpRoSaIW9RgZjoko9ji8n+fQ4Ic8kYQQ4SA9s1VCxj9p7asf9okGYYmsN+O2kJPGvMCv52DatRkxo5C7gu8WRilIoX5ugc3tFl9apQvar8OHGm/fv309ixY52Z0luh7R0No9wLImYvmSL2LsSxYIDFd1zwAK+Fz254uLM9zDUo3n+zuCjEiTc2W6UX9sayppv+uQsnO1D24Me0oVOnTrw5uxGfm4HTGRwrRSgC+I5XYGnnURz/11lwefxxVljaEwstLLwsXMc/p+gg9rIwEduqSu0PTH0Fq50fWnk4Ap2BNu81R1o2dBFRzSzITVu2ma5uyYp+e2KtyyM3taMH3xtpz2RoOX3WaGdv9VAc8Xi8pXuulmlbRo4cSanCXFXYJhqFHQJvpyLid7yZiXoIAyY8vLdgmlw+hRATi2ihvQHo3ThnD59ooKpYJBfiH5LrxwRc+FWBBbx9KNu4AJ/t6cdcl4AH3z4IN6k4VgpDBBo1anQ6Li5uBpKgXe00fTbQPXXqFBUt6hxsrUuzmlEmuJjfcc6eS6HzCEwWztS8TiXj9Dnw3F61ccmG00ej5hFrVIpiW9GJOJLu9e0a0Lj5Rnt5j90kp5y3bGpMQQILIr+YN1QPXk+SbWC2g5O6QGP8VXfdddfsRx55xJupiHm9W6G429BlxMOadZ1fccFDujo+u6CuCz6vR4k27x1+xWL9MJd6KBmaGj5mAjb8tp6Asju9HILW5iAEmj2uOhzvgnAT3VGpAEaoEr6f0SNGjHAUXM6ePUuLFi2irl1ZKWlPXZrVoreGzooal9h8efPYg5HeEu4Rc3kZbQWRUlds2RfWXg/GL9JHBs5RNRhbRpL8RE/0upxmrdhKHAvGFzqXkoo4Lc6/SW+3c3t1aiIKOMdRcletWiWaNmxbXo+NjQ2YNB91gos76ngo78D5YC5sCwJNTE/U3Y5zjtTrvb4NF0Ug8W+kSnqxlueuteEKYMYfvOXEBtEs4FhCDQRD1tqwbpntb/jzMH+C/wg+lXKIAH6z+fCbdQme7KvM1pX8WQb1cfie+DW68rx58+LxaaQlS5YYBZeSRQtRo/hytGob50VVigQECuENvUG1csalrN3BvgBKnhD4FWkA7rqyGZUuXsRTc0Yd54Lq070lfQgtjS+Ucp4FlxjHS2Py5XVsd2/k775r81ruVbbH7777rm1bloZdEFzGDBo0KEu1/06jWnBxhzFdY/Ab6n7DA7cyHq79cNwXpYQ7nx7bIsA2NtXSi8WULtB4uuAcKlmLswuF3Vk2px9z3SHgvwPXRr0GBzjkAw6VgQkLjmzZx0+XGiisHauL36xIINm3j+VHM7HgIqH2japHjeAiMbyUaGUkuAaLp3mdyiR52C2HxkXJMwJnz52nbyYsoWfv6OSZwa321k6X0i8zVxLHgvGWOFeSiWLyygWXmy5vROw5Z6KlS5cSXoZMbFY7bFs+hFEua+oDRiq4eIAWDwvWGPTDG21/fFldcc4aGC7mjWAP/WlVNgTyo8Yl5GSzMwLefAFrcNj3krU1/B/Ohev483R6ScK21VlshfC5q551sCwYpaCcReFzLnzMddzGhe12+J+LP93LefSXAqHAukNAeODXG/4/cRXW0/Kdgc/5k9tZO8efvC6+C3DhOv7kOm5jwa4of2J9/Mnt7LLCr2hcuI61J/zJ5yXA5zehOT4+nrZvZ/Mle1q4cKF9o1sLCy6fj5Pxul0Wlodnkvmn4kz8Bsx2reEaUJbtM0zE9hWqcXFGafSfayytS+U453/bAtByPHhta3r9x+nOHXpoxc/MSGnCDb380MzcI3SB/t///mccN53hGLQtX2NrWsrvEx/ffJVsEMDDix+I49IL4SF2KY7b4IHSBp89UMz6VTAp+YQAP+i5VHS6Ouu2lROvtC1dcLLY3Y+l14ciX548LG85E2tmOHdR3bp1HRk5hDlnEg53TxrHRaY3Sjw52BuHDTNP+mi3IJlHIHmuaGJW3C3fvE8U4j6Q8wz1vtlA+/NxC+i/93c3TvVa5AMaOn0Fbd3Hu+dyyiuwuZIExeMRr2tXn+JK8nuSM/E9gb2JJIS8RF8hYjc7fASUzHezgA4fXp3jIbYS5UvMug+0MRUgyDTDG//zOB+Nsje8VqOzjSYEEhISRMuVpKln185G8eVF/YU70/HTsh3LOKRECEdiN2hJtNRF63eF4/Jyfc4ckG7XAXOQPvYMeuzm9l7PT+IxlIxtKxPx9ua9V7c0sVntb775pjQL9Ln333//Q1GnOWRSwcVHAKGN4azVK/DG/xa6uBmlMgSZJhBknsHxFJSAS50YQ0kRECFw5gzvsplJIrhwL9EiuBw5kSRydZZkVjajn/scV7aoJRp07mrnbUZRJ1HAlIY18paRhHjL1ZtUAHmQS4i3d0yUJBBc2C1bFHBwxw76+eefTUNa7chL9DO0LftEzDlkUsElhwC6Xw5BZjUEmXdQ1x0amVgIMrVQbsL5eyiLUdjGQkkRCAoCderUMY7LeUhOnjTL3JfWrGDsKxIYOBNy4nHeMXamauVjnRlCsJW3uHpc5rwtyNPmMP8aMVf+BY5fsI4kWg/usXfHJuKOiyL1BGs7TWTasoyBtqVvj1ambqx2tm05f96swQHzBdi28HMuV0gFlwDBDI1MKgSZrShjMMRTKK0hxFTCJ2to9PUFICjlLgKnT5sfwOfOnaNp06YZJ8Yu0eHuTWNcZDrD7kNm1X+NCuEnuLSqV5kkmqIZy7dIoVI+IHDs1FnLa0gCBkfcLS3M5syu1BIybW/e0KEhlS9VzNgVby8PHszRQswEbcvvTz755Fozp384VHDxD46iXiDEHAIj28TUYCEG5VYcf4Ci2hiAoBRYBPbulZlhSbaLChfITy0QCTQaaPs+c9ih+lXDz06/Z5v6oq9v+l8quIiAcmPizNEcadhEbLPyL2ECxthi7KtgpsMn7LeFeaupb3eZtoXjtiQnJ5sHhEMdtC0DJYz+4lGvIn8h6WU/EGJ4L5B9xrgQtpYKw/Wa9bYN0dYcn+zB1BSlFIqSIuAXBKpXr047sG/tROPHj7fykeQ1xIPoeGkNWrRht1NXEdG2NcEsuNSuXIYKIpfTWbgNhwOxV5gk8Nh2rH39roPhsKSQmuOppGT6esJievq2jsZ53QB7k2EzVhBj7URlSsgEF6f4MBy3pWys2ZOIkyl+/vnnTtPJaIO2ZTq0LYsyKnLhQAWXXABZMgS2llhMXp5efnJdA61MVRyzBV0tCDQsyHBpjGL+9YFJSRFwR8AkjDDvgQMHrO2ibt26uV+a7fjKlrVp0G9zSRIUK9vFYVSxbJNZU8XbZm0RD2UmwrmHA3GUV0loeH6gKvmGwG+zV9FVLWpT01qOER2IXZz739OVHngXCQwv2AeYq1SmhHEinE9oz8HjHvniShax4sd4bMxS2a9fP0pKMmuMcFnKc88993SgchJlmVbGqQouGVCE5gGElV2YGZcZrhlCO3MJtDM1cc4CTU3wsIUXa2gaoRRBUVIEPCKwdavswfrTTz+RSXApBdV1mwbVKNI9TrbvP2IZ6JYxuDx3Qej0cBBc2Mjzts58u3CmM8kpNGHhemcmbbVFIPVCmhVkbvjLdxntwZrUqEC3ImeQk6AYX96sfGdty0loezwR50liTZuJ5s6dS8OGDTOxWe3QtvwAoSXXpVsVXERfT2gxsSs2ZsQbz5k2nyHQ5IFAw8JMNS4QaHgTuwEKf1ZBUZsmgBDtJImiO2HCBEpJSaGYmBhHuDo2rRHxggsD8Be0Lt1aOXtldWhU3Qqdz/lkQpnYOLMIhBcTLVq3i5KR1E/JdwR2HjhKo+ausYQSUy/3X9OK2CPpVJLnaM3VypU0dUHbEg575OEM0FdC+yOhl19+WcLGPOdh2/I2tomk/H7jU8HFb1AGvyMINKxn3JRePE3oClT2RrkGpYYnBq2LfATy5zc/tI4ePUr85tWlSxdHQDrBzuXNn2dAxc2ydOTSgnU7jYILe31wluU5q7aHLBDsAn17F7O2hRcwe9W2kF1HOE3s6wmLqGfrelSkkPP/HScwveeqFlb0XU/rq1mxtKfqTHUbdydmOnedPHJTO+Lv3kR4+SW8/JrYrHZoW4ZCaMn08iy60A9M+gbuBxDDqIs5mOujKDVhO1MSpSlKD5Q+CJw3APVDUJiHLS415gxAiETatk32QBo7dqxx+XyzbYEkfZFOCyG4SBIuXteWFZyhS83hCVahVHHjBDl8/Z8adM6Ik4Th6Mkk+n7qUgkr3QGhsmTR7Ns5NSqUouKCbZ71Ow9kG6dl3crWlm62hiwVbB/Tv3//LLW2p6xted22NcANqnEJMMCh2j22kdiCa2V68ThNCDS8qcrbTtW54Br+5FjvXKqicBSyAihKYYQAtoBSS5cufe7w4cOFnKbNgssHH3xgDHrFKujFEe5dlHj8DK3clkDNDIaWlyPvD3t/MH8okjRSLtvqcDwSJf8gMHTaCup1eWMqZ4ifUhhbeJw9+qvfF2UaWJIIkwWPFVsTMl3HJ4/e2C5bnacK9iacN2+ep6ZsddC2/BgsbQtPRgWXbF+JVrgQgKDC/nlclrvqsn5CuCmBunIoLOTEorBQUw7Xcp2rnjdnXQKPCjoAIwDEG+O8wc3lRPrnXnw/rD3bh7IXhfXIh5D9ev+4ceN6Dxo0aCjObWnnzp3E6exbtXKO+9AJdi5vDZsp0kjYDhYGDdP+2mwUXNi76LbOTenTMfNDbkV5ETK+czM2gTPT0Gm2//Lmi5UjGwKcXfuL8QvplXuvytaWtYKNdH+YsjSTfRHbkpmIIxwfyRLDhe2yGgryiqWmptKLL75oGsLVnsLalmDYtrgmYN70cnHqpyLgBwTwIGU9tUugYUEnDoU/i0PYKYpP9opiYci9cD1rB7iNjyNJ4GbrR349P43Csfb5k8sxlOOuAtz49ZcFEq5jYZIFFBZEuO4EsDPH6Qeji+bPn18CeUUO4jy/q87T5zPPPENvv/22p6ZMdf83aBQt2bgnU12kncRiW2ziW30tA1yntXHI9Wtf+I5On/VsZOl0bSDb2DX3zQd6GIdYhbf2vu9Y4aWMvMogR4BtTIa+dAfVqlTGeNF/f5qOnEdrLb6yyOD8+8A+xLmKnGj4zJX0zvDZGSz5Y/LSyFfvESXR/OGHH+i+++7LuNbpANqWr/fs2fOgE0+g25yRCPTo2r8i4AMCeIgXwIOaLdWKobAgw4IPa3VY2OFz3iTmwoKOe+E6FoD8Lfiw0MCCBZdTKC5BhAUQrktCYQGDhZGj6YX5+DqvBA7w+5OmojPHV8AaNWrQli1bjNtFv81ebWld/Dm5UOzrLTz4Jd4ZrOrPqu4P9nq+fbo3SXJMPfvVRJq+LCg2l8GGKODjc9DG9/7vWuM4O+CCf+uAn4lzZd3XrSWxca2JHvt4LM1fuzOD7b7uuE6wTcRpPjiPGWtYBZTy66+/1r711ltFzIL+fGLx9w3cp0noRYqANwhAaOFABfu8uUZ5syPQu3fvUSNGjHAUXNiQd9myZdSiRYvsHbjVdG5Wk/73yyzrRutWHXGHI+euFgkuHOCNA5AdgWFmKFCDauVEQsu+xBNhEYsmFDD1ZQ6zV26jLXsTjVqX6ojZcjUCPE5ZuoluaG82+GYtn7vGkz3c+kBwkRC2jaVCCzVo0GBCsIUWXlMeycKURxFQBCIPAQguo7EqY6CO3377zbh4ThTHSfsinZZs2EMbBCHwOU7Koze3Dxk4endsLJrLLzNXRLytkgiIADL9LLQfeuDa1tS5aU2qUpaVyc7EApF7/KDrkUZAEquHe/3yyy+dO3drfeihh+TMbtf5+1AFF38jqv0pAmGCAN6cDsTFxf1umu6PP/5IrE42Ua8rmphYIqL949HziD04THQtkhiagtaZ+vBHeznkprnaEDyPxzlw9KQVLM0fY2of9ghMWryReCvIRNXKxdKA+642sVm/xV9nrczgY23L3dD4SYi1LZJs8NwX7hUz77rrrimSfgPNo4JLoBHW/hWBEEbg7rvvHmyaHmeVnjLFfL/i/XvOhxLptGj9bpqxfKtxmZfAGPPlf1xJ1cuzCVbw6PYuTUV5iX6Y8hedPXc+eBONkpE5Rs6nYxeIVluoQIyRb9nmvbRuJ9vZ/03/uaUD/g/Z1M+ZTp48SQ8+KLax5ZxE/46NjTVL7M7D+qVVBRe/wKidKALhiQC2i1giYcNhRxo6dKhjOzey10O3lnWMfJHA8Pm4BY4J8Vxr5ESGb/6zh0hwcF3jz092ge5xWV1jl+wB9fuC9UY+ZfAPArMg+G7ac8gvnf06a1VGP42ql6PrsE0kIfYW5ISqEoIn0Xdwf94k4c0NHhVccgNlHUMRCFEE4BKdjJvSeNP0WKXMb2gm6i54SJr6CIf2HfuPwvh2tWiqtSuXoefu6CTi9TdTG6QgMCWH5DEnY/uCkyoq5Q4CrLb4YtzCHA+2N/F4hjE1R/R/+vZOotD+u3btovfff186/hl4Er0mZc4NPhVccgNlHUMRCGEEoHUxWt+eOXOGxowZY1xF3Splg741Ypyknxj4wcPeHBLit2D2Eslt6tm6vmjI0X+uEfEpk/8Q4JxWm3bnTOvy0x/LM4yp2SC3ITQuEnrhhRcoKUnm8damTZtBeMHZK+k3t3hUcMktpHUcRSBEEYDgMhlTO26anmS7iN/6eiChXDTQyaRkGu5mFGla89O3daKKpYub2PzWXhRJ/djuyESb9yTCUypnD1DTGNruGQH3bR7PHPa1+4+cpDHz/g5Sxwa5kpgt3BuCT5Lkfzl95P3QzLxlP4vgtKjgEhzcdVRFIGQQwNvUWWwXjTJNiL0PDh68aARox39tm3oidbXd9eFUz6Hxj52SvbnGFitEnz5+I3Ek1NwgjpRbIL85VNfvC9W2JTe+D09jTFy0gRIOG03MPF1K30xcnOEC/TACzcUWK+yRz72SQ/s/+uijIq84vg6h/fvj/sDBMkOKVHAJqa9DJ6MIBAcB3KB+No18/vx5Gj58uImNysUWo9awrYgGOoGtooE/zxA/CDgmx9dP3ZIrmpeecMc2USo8XNi+RSk4CJw7n2qF6Rd412eaIGvJxs1bZ9U1rlGebu7QKFO73ck333xjBZS0a89Svwr3BaPXYZZrcuVUBZdcgVkHUQRCGwFsF83EDBNNs/z5Z6N8Y3XB++3RQuwa7Y3Kv1KZEjT4md5iewRfcKxUprgoUu6C9bvocJbEfL6Mp9f4jgDbukxe4p3w+NnY+VaUavYae+HOLsY8Rjw7ZIP3JpEia1uerFq16gXfVxa4K1VwCRy22rMiEDYI8A0K4bxZeHGkRYsW0fr15q2Fjk1qUPEinBoqOuiDkXNp1bYE8WLZ0+eLJ26ma1qbXZXFnboxXg23dI4jY6KJuk1kgihX2t9FcsRDx+Q7Mte2/fvF4M6uzYi91iTUv39/S3iR8GLreAKyx0+T8AaDJ28wBtUxFQFFIPQQgNYldsmSJdeZZla4cGG66qqrHNny5s1DB3EjXrtDFifCsbMwaLxwIY3mrtqBPEa1iA0lJRSTLy91aloLNi9F6K9NeygF2zb+omfhfs1pGJyIPaLeQBbiVMxdKbgIJKect3IYsWG7ROCsUaEUlcCLAQsu/Dsy0fLly+nf//63dEvzHBLZ3jR16lTOQO8zzZw5s3jPnj2bwCvpshIlSrRv2LBhJ5S2KC27desW369fvzK455xEvjSZkZjbTMwiuRuzHioCikDkIoBYDTWQBsAYErZ8+fK0e/duypfP2fBzI1w97/rvsMgFzMPKalYsTV8/eYvX2qbdB49ZQsRfm3LudRqPh9qIV+72MLvMVaPnrqH/wj5HKXQQYM8gzursT2KD3Pbt2xNrSyUEQeOdhQsXPiPhdfHg3lEG94QWuK7FggULmu3Zs+dStNVEMe3qsNS8rWPHjmMffvjhL3D/2ezq0+lTBRcndLRNEYgyBJCPZPahQ4euMC2bUwBcfbU5j8pDH4ymxRt2m7qLqHYWHN7797VUtZw5OZ77wjn/EWf45azSs5A0j7U4vtAjN+Hh18354cdj3fPmL+oG7QvAAbwmD7b3+v+jK12XvhXkj6FefPFFGjhwoKgr/P+vgKakXaNGjTK0IDhnFWIcSrlZs2ZxJtX49M9qs2fPjsd5dZTSKDkl/sGvRiLH71B+xBxsNT4quOQUar1eEYggBGCQdyP2tjlrtCPdf//9xB4KJloCoeX/ILxEGxXHdtFHj95AjeLL+7R0zkD9yZj5tHDdLq+v/31gHypfqpjjdeuwhfePt8weYo6daGNAEGDhhX87HPU4pwQBgzp37uxNN8vBzEb6JVA4yVY5lNwLPoTB0ukEtpH6YRvpW1eF+6cKLu5o6LEiEOUIIBR4DAx19wCGsk5QVKpUydouMu3H85v9tS98h8zDcsNDp3HDqa0wEuQNevg6alGHX1J9o13YQhrz51qaumQT7Uf2ZhPVgaHm0JfuNLHRhyP/pB//WGbkU4bgIMD2Kz8+fztVhHeYr5ScnExNmzalDRs2+NpF0K+DkfBHCJjXD/ekVPfJmPaf3Hn1WBFQBCIcAdwgUrDH/aNpmZwxGmpiE5tlaCiJ3mrsKAwZOPfPIx+NJRY+fKWqiPvy2M3tafzA+2jI87cRbwO1rl/F1gC4TYNqoqFmr9om4lOm4CBw/PRZevrLCcjW7Xv+qP/9739hLbQw8rCVeQwB8H7FC1UmgzrVuATnd6mjKgIhi8B7773XEJlgOYOg4/3h9ttvp2HDzMa3bOPCti7RSP+6tjU9gOJvYk1WAkK+7zl03CpHT56xkiRyksvalZzdYzlBZK9XjbKpv6es/fmAQE9EoR5wn9mWLGvXbDxfp04dOnv2bNamsDyH5uVrCDEPuibveGNyMemnIqAIRB0C7IJwmdOq8+fPb20XlS3ruKtE5+Hme+0Lgynx+Bmn7iKu7bbOl9JTt3aE1im0lvbTtGX0wW9/htakdDa2CPS/pyvd0L6hbbunBnjo0GeffeapKVzr0mB/dxPs78byAvKG6yp03oqAIhA4BHCTyAvXxmudRmA3yzJlylCHDh2c2KyonklQefvD1ddxoBBq7AHNxwt3I6JpqEktwGjB2p1Uq1Jp6ty0JrVrWI04ZHy5UkWtvDe8RaEUOgg0qVGB4ivEIsqy3Mh7y5Yt9MADDxD/f0YQXYL7URfYuwz+9ttvk0LsXSCCYNalKAJhjABuECXSU9kXcVpG9erViW+UefM6vwMdwVYGG+meS4mom6lHaNo3qk7v/V9PymfAxOPFQa7cl3iCpi7dROMXrKedB44GeTbROTxn9b758kZ0I/IPsY2Tt/Tpp596lUjR2/4l/AUKFKDmzZtTixYtqEaNGsSxn4oX/9vQ+Pjx47R161aaN28eTZ8+nTgHmpRgfzcIAkw/FVykiCmfIhBlCGBf+RvsK99vWvbo0aPpxhtvNLFZAdbYQyaS6dKaFawM0AXzx4T1MtmGZsy8tfTxqHnEiSSVAo9APkSbvqNLU+rbo5Wt8bV0FiwQvPzyy4QXEOklPvOVLl2aEHOFGjduTM2aNbMEFqQPId5KNtGBAwcIUXrpq6++kkb1PYU1VVTBxYSstisCUYoAjHRbwUh3sWn5Xbt2pWnTppnYaFvCEbptwE/kW1g1Y/dBZ6iN7ZcvOWpuYXmOpnfffZcmTpxIb7zxBkHDFfQ1ZJ3AESRgfGvYTOJEkkqBQ4A1K28+0IPqVuE4b/6jnTt30qRJk+jPP/+kv/76y9KOeqPhcM2kSJEiBI9DqlWrlmX0y4a/tWvXpnr16lGFChVcbD5/8u+fcylJCNvYd6ngIkFKeRSB6EVgKZbewrT81atXW29dJr5+n40nzoYbaVShdDEa/PStFIe8Q1LCXj3985//zGBnW6GnnnqKkN/FmE4h46JcOIDyhX6evow+GjnPykicC0NG1RAtEefnXWwtFi0ky3GVE3BSUlLYxZj27dtnJVw8ceIEJSUlZWg7eIunUKFC1rZOyZIlLRs23uYpWrRoToY1XnvhwgUrUN6cOXOMvNAEj1XBxQiTMigC0YsA3m76wJJ/sAkBaSTdVVsTqO87I0zdhVV7yaIF6dune1O1chxoVEa8vYbIoB4NKDm43+OPP059+/YlVsOHCk1BELz+g6eo8OLHL4QzO3//7K1UICZTmBI/jhA+Xa1YscLaZuJtSgMdU8HFgJA2KwLRjMCaNWvyY/96HTCo6YQD72evWrWK6tat68RmtT2DwFqRsvXAGpbPHr8Jnh+ljOt2MXz55ZeW8SS//ToRGzxfeuml1LZtW8t2gKOgsoq+WDHncP5Ofea07c/VO+i5ryciMJrcoDKnY0bq9ZwW4jsILd4IvJGKhWtdML4VJYNUwcWFmH4qAoqARwSgdfkntC5fe2x0q7ztttvol19+cavxfLjv8Am6+eUhVnwXzxzhUcuuzl/2u5ma1a4knjDbtDz99NNifk+M7MnVsGFDio+Pp2rVqlG5cuUszQzbyLB6P9A0Gwkgn/z890APE/H9v/vvntQJLulKFxF47LHH6OOPP75YYXOkgosNMFqtCCgCfyMAK/5CeChytj/HkKysIdi4cSPVrGm+Gb82ZBqNm8+KnPCl5+/sTLdc0Vi8ADaSvOaaa8T83jCywMIarypVqnhzmc+8A374w3KZ9rmDKL+QEyh+8pjZEy8rTLyNsnH3IWLhsQ4MeTkWTyQRb5F+9NFHxiVpriIjRMqgCEQ3AhBakqDC/cKEAge8Yo2ChO6/5jLEOQnf2w+7rHojtCQkJBDbAQWC8uTJQ7/++qtXQgs/AFfC3mjaX5utlAHezus/vS6H91TgjUm9nVe48HMqCG9ob+JxGvTbXOr+7Ld098Bf6OsJi+npLyYQvwAcO5XkTVchzbttmyyHlmpcQvpr1MkpAqGBALQu5SHA7MBsHJ9WBQsWtIJLVaxY0Tjxt4bOpN/mcEqk8CLOH/PqvVdZCSQlMz927Bh17NjR0ohI+L3leeihh4iDjklpN5I+vvzdVFq9fX/GJQ2qlaPbu1xKnOtIGu33hyl/0cej52X0oQcyBBpWL0c/PHebiDnx+Gl6f8Rc+gMCpp3RajF4I919VXPq3bExFUdW6VCiVHgL5YVgLaFz585ZgeqOHjUHPswr6VB5FAFFILoRgOvuKbgh1oT7ZFMnJDhGBN9gu3Xr5sRmtdWpHAfBZRWlXjB6ERj7yi0Gzsw88J89EClYdjPmJHfXXXedyODQlzWwB9KIESMsF1bJ9RwNt8//RmTLWH0ID8iZK7ZawswVTeIpv8DLpU6VMjRi9io6dz5VMrTypCPA2joWXky0HXGP7n/nt0wCpqdrGP+lG/fQr7NWWdqzwgViqHypYmIB1FOfvtSdQLqIdbsO0FyEOxg5Z421FXxZvSpUCPOREHvaDRkyRMJ6SjUuEpiURxFQBAgB6RqkZ412fGoXLlyYtm/fTqbkiwzpJ6Pn0/dTOFRM6FMduK5+/WQvKoKQ7BLirTM2WB45cqSE3Wsejrkxa9YsYk8MCaVgPvdDaFm386AjO0f//fw/N4mEl3d/nU2/zFjp2J82ZkZgwpt9qVysc1yU5JTzdMfrQ7MJmJl7sj/j/i+HAHopch01gJBUOa6EWPNh3ysRz4vTQrCBPWvudqHsPHAMwSUP06FjpzMurVymBH3y+I3WuBmVDgf8v8LpAVauFP2WFqjg4gCmNikCikBmBDj4EwJYXZ+5NvsZB1J75513sjdkqTmVlEw39v8B+/ShndyP32C/e6Y3Asw5P3Bcy2Ot0yOPPBLQDL1ff/11pgB2rrE9ffJ82B6CcxBJ6NZOTeiZ2zsZWVdv2w8Nzq9GPmX4G4Hq5WPpt1fvMcLh7wzeMfnyUhUIL/w7LovfcAnEHuIIzwXz57MKbw+m4Y9ziSWjJCWn0En8b55EuoejsKE5jMzuh0+ctoSTC/gtOdHljeNpwH1XebVtxcJ9r169nLrNaIOg/rYKLhlw6IEioAiYEIDWpR20LkbDBo6+yckXJbYuw2eupHeGzzYNHbR2Tnr3zVO9kFHZ0akq0/y8CWGe6ULhCQtFErdRV3ffTlxCn49b4Do1fuI5Zj1gTTFG+CHWAwajh5EaQMmMwLVt61v2UU6cLBfc8soQn7UtTn0Hso2D6P2nVwfqBU+7S/gHJKTk5GQrTtH69TKhGvegZo4qX+G4yqYIKAJRggCElvnQuswwLZfDiA8cONDEZrXzja5mxdCJEOs+aTYsfOuBa7wSWn744Qdx3hX3saTHbDODuDpSdgT720JfeCG0cMf88Jy0aKNxDH5T560lJRkCtQS/c7ZD4i2YcCJOWzCs/50wEG7ildDCmsD/+7//I6nQAkxW4x60QgWXcPp16FwVgRBAAAHpXpdMg7cyJO6NbOj61K1XSLrMdZ4X7upMHHNDSlOnThVv30j7dOdjoYVdn/Plk4WI37rvML3y/R8+Jbacv3aH+9C2x01rmT3IbC+OsoYqSKZoojVu3l4m3mC3xxYrRK/Aw+7zJ24iThTpLb344ov03XffiS/DvedtZlbBRQyZMioCigAjgDeeWXFxcatMaLB74wsvvGBis9pbwfugW6s6It7cYurTvSXd0L6heDjOtcL79L5k3zUNEhMTY2lxRo0aRexyLiG2T+AIt2yv4Att2pMo8hiq7cUWmi/ziKRrygqScO7YfyTkl5w/Ji/d160FjX7tH3Qdtr+82RrixbGmhe8Nb775pjdr3QDBxQrNrYKLN7ApryKgCFgIIHaIaK9i+PDhhBgwItSehTEoGw6GAv3zmlb00A1txVOZPXs2XXnllXTy5EnxNRJGzlX0+uuvW/ZCr732mljTwq6pj3481qfgcq55nU+9YHmQuM7tPivBg0RJhkBsscJGxv1H/PsbMg7oBUPF0sXp8Zvb0/j/9qFHbmrvU0ZrzkzNmkMvhZakTz755J6qVatavvcquHjxpSmrIqAI/I0ABJefcLRDgseAAQMkbJYXwkM3yoUFUac+MF3bpj79+/q24rfIP//8k7p3706HDx/2YbTsl3Bslueee442b95MrMV56aWXCDfs7Iw2NSmI69EPmhZ/bDlcQAAxE6WmmXlMfURLe8H85pgmJ5POhRwcbKT97B2daOSAe+ieq1tQ6eJmAczTImbMmEGcLHTChAmemm3rkEn9cRikZ8RNkG2U2nanDYqAIhCNCCCx33mobV+Dkehg0/rZ7mPBggVWlmMTbw9Ebh02fYWVj8XEG4h2VuWzZ4SU4BpON954I3GgOV+J8wy1b9+eunTpQldffbWVQNFb1btrbFbBvz1sFq3Yss9VlaPPMiWKGK/3dSvK2HEEMuTLa/a2OY+YJqFAJRCFt0uzmtjCrUst6lQSC/Ke5s6/y/fff5+effZZ4pgt3hCcARBjcUSmJK8quHiDoPIqAopABgIQXIZAcOmHikYZlTYHnPV14cKFiDjrHKybvXhe79uN/vHmL3T23Hmb3gJTzTEt3n/oOipZtJBoAJdHhDeaFhZI6tevT5dddhm1bt3aElg40zPnG/IHfTd5KY2Zt9YfXREbkkpCyJ8KQQ2BXwAIQCd4fhuJ3YqDQfzbrIvEja1hb9a2YTVqBqNraYRop/keOHDAytPlrZYlvc9V2Gruk1XjGByEnFapbYqAIhAWCPB+M4SX5yC8/G6a8NKlS61gbI8++qiJlWpUKEX9el9BA3+eYeT1FwOHnXi9TzeqV7WsuMu3336bfv/duHRLg9K5c2fLBqZTp05UokRgbEI4gu1nY+WxWkwLveVyozxqdcFbU0oyBCSJRTl5J0em3bLXP1uPdjNjA1s2rG5eu5KlUWmMKLusZfEnjRkzhh588EE6dOiQL93uhgddT9xnLobkTe/FrLfyZTi9RhFQBKIGAY7rgi2TzqYFFy9enNatW0dsw2Ei1mb0HzyVJi8xxxIx9SVpfxSGhvfCS0JKbHR8xx13eEx8x9oTTqrI4f6vueYar7I2S8d352OsBk/iAHML3atzdMxxdYY8fxtJ3v7nrdlBj38yLkfjRcvFCz99GFnRnbWOLixYcFm0fpdlq7QFbu0cYp8Npr0hzlvEBu/lSxcjNqzlEo8XAy6VyhT3SxoAT/NJSUmhp59+mj788ENPzZK6/RBaOt96660bPDGrxsUTKlqnCCgCYgSgdXkCLtJsOOd4P0GCRivY1NixY4375ay2fumeLsRxSDbvTRTPxRdGduf8x9XNxZfOmzeP7rvvvmxCS2xsrBXmn98wIcyJ+8sJI289sMDCgou/iCMFv/3gNSKhhcfUJIsy5IsUzC8WWrjHWpVKW8XVO9u+cD4gTo/B4fhZ08WCDGdgZmLD3wLQovAnx1dhA1qJ4Onq31+fbM/GQeWEeYc8DbsXQsvVdkILX6AaF0+waZ0ioAh4hQAe1J9D6/JvyUUcWfYf//iHhJUSjpygPm/9SokBCinPavJPkQyOc7lIiD192rVrR4mJF4UpjqvCRocQ3qhYsWKSbvzCw26z7yJVwqyV2/zSH3eSN88l9OEj1yPoXjVxn38s3UzPfzNJzB+tjGwzxHFPIpV27NhhecOxNjIHtAFCSzcILbuc+vCPRZjTCNqmCCgCEY8AbjYvYZGiyFn/+c9/aPfu3SJMKpQqToPwIC1c0OxGKurQjSkeCe/e+XdPsdBy9OhRK/6Eu9ASHx9Py5Yto1dffTXXhJbjSHrHIfx7vfqjX4UWhualu7t6JbTwNecFLtPMF+1UxkcX4lDHLSEhgaB0pXr16lFOhBa8/CzAfaSDSWhhPFRwCfVfhc5PEQgDBKCFOIxYC89JpsoCwD333CN2i6wPg9kPH7nBymIr6V/CEwe3548evUFsjMh79rih0saNF21u2I2ZjXPZSyg3iLfMOBnltS9+T98gaaK/va6eRNqF69o18HopqV7aXXg9QIRcIHEtD6el7t+/3xJYatWqRR988AFxskRfCZG4J8B7iG1aRBbJKrj4irRepwgoApkQQNbWb/DWZMwczRdxpFlpEkbmZ9fMjyFosP1FTikOsUm++M/NVAGGilLibMzTpk3LYGcbnGHDhlGDBt4/6DM6ERxwsr0hU/+iewb+Qne8PpQ4k7a/46awR9Uzt3ekO7o0FcwoO4vLxiJ7i9a4I1A2tqj7adge//XXX9S3b1+qXr26JbCcOZOzzOC4Z/y6Zs2aXvAeEks+jsZ0YYusTlwRUARyHQHceNIgvPwLth7LMLhRwuDtFY5lwkHXJNQM9ihfP9nLyr/D7qK+ULVyJS3tTeU4uUsyv01+9dVXmYZjGx2OlutvYiFgw65DNAd2K9OR1XnH/qP+HiJTf/lh2zPgvqvoqpZ1MtV7c+Ktp4s3fUcSb6iks/AFUxZOOA7L559/TjNnzvSlC0/XnIaW9ikEl/sCAS09tdvWqXGuLTTaoAgoAr4ggJvRvbgZfYdrjfcXdpEeP348XXHFFeKhTsGjggOt/TJjBSWnyGKI8AP6zq7NqG+PlrCXMcpUGXNhd85+/fqRe+h7zsy8detWr8LwZ3SYfsAuzGxcu+PAUdqecMSK2bEFW0Hb9h2hsym5E3ivdf2q9NRtV1B8+VJZp+fVOWuBeAtLyRmBd/7VkzojEm2oE//Wt2zZYqWbWLJkCS1atIg4DlNSUpK/pp4CTeWQTz/9dADiG8mM3bKMbLyxZOHXU0VAEVAEjAhA/Sv2MipcuLD1FsfRZL0hzl488OfpiHNxwPGy2pXLUP97ulKDat691X3xxReWW2fWztu0aWOlMMhabzpfv/MgzV29nVZuTaC1O/ZTsCLO8nbbM0hoeU3reqYpi9qHTl9O74+YK+KNZqafXrjdGOCQM6rnzy8XrP2B5/Hjx63f8+LFiy0hhQUVb6JBezMH3kqGIS9rZXMU3lm3irxBXXkVAUVAhAC8A56GwW4XMBv3IFgNff3111tZpGvUqCHqn5nqQCD57plbaQUEgT+WbrLy8yRAi5F2IY3KlSpKHAn06ha1qRVCmLNNijfEWiC2a/FE2BLzVO2xbsf+IzR+/nqatmwL7U087pEnNys558wbfbsTGyf7i1JTEUxGyYiAxMbl/vvvp1WrVllRlnkblbOD16xZU5wV3G4S58+fJ87KvHPnTmK3ZTYy37BhA61fv9469jZ/kN04DvVHoYl9HlvJX/GWsgOfqEkFFxFMyqQIKALeIACh5RRuUnfgzWo+ritgupbzmXTt2tXKZ+TNfjcLJGy4y8VfxNF9b7/9dluvJ2lCxQvYDpqxfCsNn7XS7x5A3q61TInC1Kd7K+qFcPL+yD/jPj6vU8kZAY4TFCvIgcVhAlhw4eKimJgYa1uSjWE56jR7s3G8IK7n3F/8yVuP/Lvk7Rwu7LnH/1Psus/h9tkDiIWXIFAKNJRfI8HiANwTDmIL2S9T8O41xC9DaieKgCIQLQjgLes/uFkNkq6XDV7ZxdiUjFHan7d8rP3p0KEDLV++3PbSOnXqZHKLtmVMbziC4HlDkfH6t9mr6NTZcyZ2v7ZXR6ya2zs3JY4OXABJJANBbG/06RiWT5XsEKhUpgSNfeNeu+aMenYtZvupSCC4OC987rnn7sfLyzp/r0cFF38jqv0pAopAJgRwA5uJt75OmSodTm655Rb66aefiCPS5iadPHnS2rKaNWuWcVhWtbMA4w0dP32WJi3aYNm5rNiSAMPiwLwBl0K4905Na1IP2LA0rVnB620y15r4zb1QoUKuU9tPTjfgz+SOtgOFcQNv0X3Z7xbHFbDWhO29pBo9x86C27gNdiwDIbR8D+2pzHrey/mq4OIlYMquCCgC3iEAe5fGCCy1FFfll17JSQpxHZUtK8/WLO3bEx9H/7yBxQYmAAAcvUlEQVT22mutKLie2rPW/etf/yI23vWVOM8Muz2v3XmANsBod8u+RMv12ZegciWxBdGkRnm6FEJKy7pViAP25UHo/pwQ2zxwkMChQ4cau/lmwmL6YvxCI180M/SEEDmgz9WOEBw8eJC82SZ17Cw4jZshsLyJ8iPsWAIjlaevK2e/7uCAo6MqAopAmCGALaMHOV4Dpi2+57AR7MiRI6lly5YBXe3ChQupV69etHfvXvE4vJXFyRbZgNJfxLYiicdP0wEYGLOR8bGTSVYyPVcSQzYlYbdu9gpiYYWNPTnDL8cH8db42GnObB9x5513WkECJcHFvvp9EXFRskegb49W9NANbe0Z0MIux61atXLkCcHGC/AUmo7/748hsEzA/+yF3Jij+CaSG5PRMRQBRSByEYCR3lsQEp71ZoXsGvrSSy9ZydvYCNGfxMaKMCCm/v37E4f095aqVKlCHEUUW2HeXhqy/By3gw2Tt23bZm1bnD592jjXL6Ft+RpaFyV7BJ6/szPdAsNoJxo9ejTdfPPNTiyh1LYJ/89DEePoB2hTd+T2xDTkf24jruMpAlGKALZ+nsfb2TBvls9xLV5++WVLszFjxgxvLnXk5ZgVbdu2tQQiX4QW7pw9QHg7xdfrHSeYy428hjfeeMPKfM1CC5NUi8OaICVnBMqXMmcN37Vrl3MnwW/dhy3cQRD2OTdEXbyEDAiG0MIwqOAS/B+DzkARiAoEOH4DEqndC+FlrLcLZi8fdpfu2bOntUXj7fUuflbHs/EvB5Hj45zSlClTCNE/xdmuczpeIK5nLQsH/2PNU5BcZgOxrJDqUyK4SDOm5+LCjuF/dSK2gZ7CS0dTCFaVkWOsH7yEVubiHDwOpYKLR1i0UhFQBAKBAISXFAgvt+KGOMmX/idOnGi5K3NgLs6bwjEqTHTs2DEaPHiwpbVhG4JRo0ZZcS9M10nb2daladOmVj4j99QA0uuDxcc2PRzwjIW4FStWBGsaUTFuOUGCxSALLpwpcSl+C19CUHkAgkoTCCql9+zZ0xO2ae9Bs7KSXzxC5ctSG5dQ+SZ0HopAFCGA4FgxuBm+jDe457BsnwOM8HYGB+Xi4FzsgVSkyN8RYdmVl4UajhTKhV1Nc4PYRbpPnz509913E4Sz3BjSqzF4623y5MmWu/m4ceMoOdk+IS9jeerUKWP/n49bQN9OXGLki1aGkkUL0rR3HzQun43Q2WbKgdgQy1tDryRcwyGbj8AW6zByBLGkf6Bhw4YJON+LshvHW1G/Ax5NuWJYi/FzTCq45BhC7UARUAR8RQBvd93xRvcrrjcbAfg6SBCuY4GKs16z2/Q111xDBQoYgwcHdJYnTpywXJsRwZQ2b94sGksFFxFMRqZG8eXp+2dvNfKVKlXKinhrx/jKK69cByFjJtrZGrwoCgfZ4R+Wa+eEpVAuZ1GOccHLAR9HHPn8phNxSOiCFAFFINcRgNAyGWrpNrjBjsbgdXJ9As4DpkFr8hvU5ezqkdeZNXMra3jY/oVLbGysZZsDIY2uuuoqUVC3zL35dnbkyBFrfN4amzBhgj+z+/o2oSi9qoLAMJcFS3ZDdyIILQfxf8JuXmZXL6eOIqBNBZcI+BJ1CYpAOCOAm/E62L20xOcQCAk3hshaTkDQ+CcEqxG854+PLzEvnzTU/EDiSMBc2L27efPm1KxZMys+TYsWLawIvJIItSZc2GZl2bJlVqZfjv7LnlO5kDzPNK2ob5cY5ko8irCtcyDqwUwHQAUX/SUoAopA0BFAAraTmMRNcLdku5dXceyTkOCPheABsebTTz+9AYKU5RcMoeVrCC958fkJ+vdK85J1PmxjwgHvuLgoT548lo1OfHw8cWwYLmyvw1sHxYsXz0imx/xsk8KxVVibwjY8EPRo06ZNtHr1ajp8+LCrS798Su2C8mBbTMkegQqlzbugbIdlIDbSOmjgiZpmFVyi5qvWhSoCoY8AhJbXEIFz4aBBg1hIqJ3LM+atoaEwXn20UaNGmfT2EFq+gPCSgM/vMaeS/pwXeyJx7BRX/BR/9p2TvqSCizTeS07mEs7XVihV3Dh9geByAm73bGirBARcRj0KhiKgCCgCIYEAhJapUJ03hKDwCCaUW2+Z8xFYqwM0GHdnFVpcoEBoGQt7nBY4jwoXGqlrt2pcXL8Qz5+SrSKB4MLuykrpCKjgoj8FRUARCDkEON4LBIVPYftSC7ElnsEEdwdgkqxh+QMaHs5+1x6BteabxuDtIwhVHTCn18AbkR4bLgxU4+JCImefftoqUm2L29eggosbGHqoCCgCoYUA277AHuQdCAvxEDB6QtDglAEncjjLrRA8BkJ7Uh8alquh4fnDm/4gVJ3DnF7B9Y1gD2MUdrzpO5R4xRqXHGaiDqU1+3suxQoVQFJMsyu8wDg3ooVkb3FXqypvEVN+RUARCCoC0MIUWLBgQVsIDxwDpj0mUxelDIqn+1kq6nciwNZfcCedhe2n6dCabESdXwiB9PK+9dZb90L4eREd1vBLpyHSCWfAlqQA+GHKUvp4dMTKbzn6NmpXLkPDXrrT2AcHUdy3b58T3zI08jalEhDw9I+uwCgCioAiEFYIQPvBIXNZeHFZQrLAchQamkRobVICvRi8MeeF8HIdBKlHoMXpgvFC/d56AdjMQJkLAXCAHT6sdTEZ3/74xzL6cOSfdl1Edf0VTeLp/Yeuc8SAPcXYHd6wNTcPnXRw7CiKGtWrKIq+bF2qIhCpCECLEtTAXNg+YkFpDBcIUfEQYO5CuQ3nDVFCSYjZBa3Tdyg/ArOtiKR7KT4dBRfWvDhRXt0qsoWnYmmXHG3LYiXoNAgtfHHUB51zR1AFF3c09FgRUAQUgRwiAEFgO7p4g8vMmTPjEAyuzbp165oh3krLlStXNkN9JZTcEGZY07QJsXGWY5tscadOnRYjyeTS+Pj4VAhVaLLI0VslJSWFTIJLPoNg4xooGj+rljN7zktSMGCr8zh+Q9EIocc1q+DiERatVAQUAUUg5wgg9sYh9DI+vVgdQiNTAgfNIDw0wmc9fNbHZ3UUzsqYH8Vb4uBkPM4mGB1vRAC7ldCoLMM20DJskyUhNg5x+eyzzzz162j0yYJLwYIFPV2XUZcvr/p4ZICR5aBq2dgsNdlPOYCgiSB4quDiBpIKLm5g6KEioAgoAoFGABoZztY7K71kDAc7mUtgb1IeFVxKwwC5FOxleK+BJQNXVmAWUs5AQDkFAYVD5Sai7ESflqcVrrei8rppVNDsSI6Ci8Q4VwUXe3wlW0U7duyw7+BiC0eWVkpHQAUX/SkoAoqAIhACCMBOhoWShPTiOCMvBBPHftDI2YRtiTUuJsqLlAVK2RHgTAiS4HPbt/POopFUcHGDSH9xbmDooSKgCCgCUYZAjgUX1bh4/sXElShC+WOcDZv5SqHGJaexizxPMkxrVXAJ0y9Op60IKAKKQE4RwBYTCy6s6fFInBTSRPnzmR/Opj4isb2CwKOI1y0UXDLlzopEvLxZkwou3qClvIqAIqAIRB4CtloXjjFioph8+hjxhJHEvuXkyZN0/DibPDkTbJqOOHNEV6v+4qLr+9bVKgKKgCKQFQHbPDgSjUuMalyy4mmdVyxjjuGSkMAmTWaCIbYKLm4wqeDiBoYeKgKKgCIQhQjYehZJNC66VeT5FyPRuOzfv9/zxdlr2YNMKR0BFVz0p6AIKAKKQHQjYKtxkQguqnHx/OOpVIbD9TiTF4KL2ri4QamCixsYeqgIKAKKQBQiYKtxkWwVqcbF8y+mkv+2ith4muP1KKUjoIKL/hQUAUVAEYhuBGzz4Jw+bduUgVjBAq7YeBlVUX9QMH8+KhdbzIgDgg4aecBwCN5fZvcuSU8RwqOCS4R8kboMRUARUAR8ROCU3XUSwaVQfhVcsuJXtWxJyiNIPrl79+6sl3o63+upMprrVHCJ5m9f164IKAKKAJGt4JKUZGv+koEbaxeUMiNQKc5s38JX7Nu3L/OFns/EFryeL4+8WhVcIu871RUpAoqAIiBGADFCbPeDzpxxTB5tjaGCS3aoKwsMc/kqiTs0EmYeyD5CdNeo4BLd37+uXhFQBKIcAcQIyZHgki9vXrqEE/MoZSAgMcxNS0sTCS7oVKSWyRg8Cg5UcImCL1mXqAgoAoqAAwK2W0USjQvLLAUEOXkcxo+4Jokr9KFDh0iyFQdwdkUcQDlckAouOQRQL1cEFAFFIMwRsM08fOqUrUyTackFY9TOxR0QicZl27Zt7pfYHmMrTwWXLOio4JIFED1VBBQBRSDKELDNPCwVXAqogW7GTyYPVFCSBItSwQVbeSq4ZKD794EKLlkA0VNFQBFQBKIMAVvBhZMASkgNdC+iVKp4YZJEE966devFi5yPVHDJgo8KLlkA0VNFQBFQBKIJgcqVK9umJxZrXHSrKOMnU7ZkkYxjp4MtW7Y4NbvaDiP4nEx6dF0RBZ8quETBl6xLVAQUAUXADoG2bdv6QeOiQehc+JYtWdR16PgpFFxE0o3jQBHYqIJLBH6puiRFQBFQBLxA4Jgd74kTtjJNpksKadj/DDzi/Ci4wDBXBZcMZC8eqOByEQs9UgQUAUUgGhE4ZLfow4cP2zVlqi9aKH+m82g+qVjanKOIXaEPHjxohAmGuWuNTFHIoIJLFH7pumRFQBFQBNwQsH2CSgWXIgVVcHHhKfEoWrdunYvd8RMaFxVcPCCkgosHULRKEVAEFIFoQQDGn2ycm+JpvexVlJqa6qkpU11h3SrKwKNsrNnGRWjfQqpxyYA104EKLpng0BNFQBFQBKISgSOeVs1h6Y8ft3U6yrikcEE1znWBITHOFQoup6Fx2e7qVz8vIqCCy0Us9EgRUAQUgWhFINFu4UeOeJRpMrEXLVQg03m0nuTLm4fiSpjdoTdv3iyBaH3VqlUvSBijjUcFl2j7xnW9ioAioAhkRyAhe9XfNWxIaiIVXP5GqHJcCcoL4cVEGzduNLEQtC2rjUxRymBGOEqB0WUrAoqAIhAtCOAhud9urYmJtsqYjEvUq+hvKOLLl8rAxO6AbYYkGhfYt6yy6yPa61VwifZfgK5fEVAEoh4BPCRzpHEppltF1m+oevlY429p+/btlJycbOTr3bv3UiNTlDKo4BKlX7wuWxFQBBQBNwRsNS6SraJihdXGhbGUCC7r1693g9328DxSMSy3bY3yBhVcovwHoMtXBBQBRQAPyX12KBw4cMCuKaO+ZNFCGcfRfFBdsFW0YcMGCUTr27Vrd1rCGI08KrhE47eua1YEFAFFwA0B5Cva4Xaa6XDfPluZJoOvZNGCGcfRenDJJUTxgq0iieACm6Ml0YqjZN0quEhQUh5FQBFQBCIbAdt4IRLBhSPnxuTLG9kIGVZXtWxJKiyIICzZKoIg+adhuKhuVsElqr9+XbwioAgoAkSInsv7QR4jze3atcsI0SVQN0hy9Bg7CmOGJjUqGGfPRrkrV6408V2A4DLFxBTN7Sq4RPO3r2tXBBQBReAiApsuHl482rNnD6WkeMwIcJEJR9XKmT1qMl0QYSeX1qpoXNGKFSvozJkzJr7VECTN+3OmXiK4XQWXCP5ydWmKgCKgCEgRgIHuFk+8HHdEonWpWLq4p8ujpq6ZQHBZtmyZEQ/Yt8wyMkU5gwouUf4D0OUrAoqAIsAIYHvC1k9327ZtRpAqlSlh5IlUhtLFCxPbuJhIIrggfstkUz/R3q6CS7T/AnT9ioAioAgAAWhcbAUXDppmIkkME1Mf4drerHZFYjsfE82dO9fEkgQBcraJKdrbVXCJ9l+Arl8RUAQUASCAB6ZtiHlJiPoaFc3h7iMV6Db1qxmXxvFwTDmKIDzORvyWJGNnUc6ggkuU/wB0+YqAIqAIMAKwrWAbl1Oe0Fi7dq2n6kx1ZUsWpWjMWcSKlvaNqmfCwtOJQNvCwuPvnq7VuswIqOCSGQ89UwQUAUUgKhGoWrXqBSzcY5j5devWGTHhrZIG1coZ+SKNoXF8eYorWcS4rJkzZ5p4LsC+ZZSJSduJVHDRX4EioAgoAoqAhQAenIs9QcFeRSdOnPDUlKlOEssk0wURcHJ1yzrGVaSlpdGkSZNMfPPhBm2b7NJ0cTS1q+ASTd+2rlURUAQUAQcEYGOxwFMzP3gXL/Yo02Rib16nUqbzSD+JyZuHurUyCy681WYycIbQ+Fuk4+Wv9ang4i8ktR9FQBFQBMIcAdhYzMESeMsoG82fPz9bXdYKjmVSokj05C3q3KwWxRYrnBWGbOejRhl3gM5DcBme7UKt8IiACi4eYdFKRUARUASiDwFsVRzCqj1a4s6bN88ICOcrurZtfSNfpDDc2bWpcSmsrRo+3FkmgaZrMrDfb+xMGSwEVHDRH4IioAgoAopABgIdO3b8NePE7WD27NmUmJjoVuP58M6uzahg/nyeGyOolreIGsEw10QzZswgk3Hz/fff/4GpH22/iIAKLhex0CNFQBFQBKIegYcffngYQEjLCgQnCBwyZEjW6mzn5WKL0s2XN8pWH0kVnA37yVuvEC3pnXfeMfEtHTBgwHQTk7ZfREAFl4tY6JEioAgoAlGPALYstgIEj0l1vvvuO+KtDxPd0aUp5YPhaqTSg9e1plIC25YNGzbQ1KlTHWF44oknPnRk0MZsCETuLyvbUrVCEVAEFAFFQIKAnaHomjVrSGLrUgEJF3tcVlcyVNjxcNyW2ztfKpr3+++/bxL0DkNw8bg1JxogSplUcInSL16XrQgoAoqAHQIQXEagzaNq5aOPPrK7LFP9Az1bU0y+yHrEcGTg1/t2o7x5zOvavXs3/fDDD5kwyXrSoEGD0Qj8dy5rvZ47I2BG3/l6bVUEFAFFQBGIMASwXbQDS9roaVmjR48mDkhnooplilPvjk1MbGHTngeRgd+A0FI5TpYF+7XXXqNz55xlkoceeshZsgkbdHJ3oiq45C7eOpoioAgoAmGBALyLPMaoP3/+PA0aNEi0Bta6lClhjnMi6izITM/d2Zk6NI4XzWL16tXE9kAGWvHII4/8aeDRZg8IqODiARStUgQUAUUg2hHo1KnTLDsMvvrqKzp48KBdc0Z9scIF6KlbO2ach+vB3Vc2E3tKsfEyBBJKTU11XC5sW151ZNBGWwRUcLGFRhsUAUVAEYheBNIFF49RdM+cOUMCN18LvCtb1KbugrD4oYr0LVc0okdvbi+e3oQJE2jOnDmO/Ag4NxNaq7GOTNpoiwAScispAoqAIqAIKAIeEeDtok6eWgoWLEgbN24kGJd6as5Ud/rsObr3reG0Y//RTPWhfMJB9J6+rSPd0L6heJqsZWnVqhUtX77c6ZrU9957r+WTTz65wolJ2+wRUI2LPTbaoggoAopAVCOA7YwhdgCcPXuWXnrpJbvmTPUcsG3QQ9dRbNFCmepD9aQFkkUOfelOr4QWXsvAgQNNQgtB2/K1Ci05++ZV45Iz/PRqRUARUAQiFgEkVizWrl27vVhgMU+LvASeNjNnziQY8npqzla3YddBevC9kXQmOSVbWyhUlC9VjB6+sS22tuoSr80bGj9+PN1444104YLH3TVXV3uBaUNgetxVoZ/eI+DdN+N9/3qFIqAIKAKKQBgjAKHkNeQp6m+3BN4q4q2RUqVK2bFkql++ZR8999VEOnziTKb6YJ3wllD7RtWpOwLmdcAnJ4r0ln755Rfq27cvJSUlOV165pNPPukKw92FTkzaZkZABRczRsqhCCgCikDUIgANQQloCHYDAI9aFwbm0UcfJWlgOuY/fvosDfjhD5qzajufBoWqIB7LnfAWYu0Kez/5ShBG6LHHHjNFyCUE9eszYsSI730dR6+7iIAKLhex0CNFQBFQBBQBDwi0adPm/YULFz7hocmqyp8/Py1YsICaN29ux5Ktnt2GJy/eSB+M/DPXtC+xxQrRFU3iiT2dLqtXRRQBN9vE0yt4/m+//TY9//zzdiwZ9bBr+WHPnj33ZVToQY4QUMElR/DpxYqAIqAIRD4C0LqUg9aFky8WsVttfHw8LVq0iOLi4uxYPNYnwd7lt9mradiMFXTw2CmPPL5WxiDRY/1q5ahVvcrUvmF1aoQ8Q3ny5PyxxxFxH3/8cfriiy8kU1uNSMNtsKUWGntjkhmHOE/Ov8EQX6BOTxFQBBQBRSDnCEDr8j9oXZ526qlDhw5WNuRChbz3HkqFUevCdbto+rIt+NwJIea001Ae20oUKWgJJ01qlKemtSpSw+rliW1Y/El79+6lO+64g+bOnSvp9sCvv/7aJj2FgoRfeQQIqOAiAElZFAFFQBGIdgSgdSkDrctm4FDSCYvrr7+efvvtN4qJiXFic2zDLgwlHD5Ba3bst2K/HDp+mk7CLiYl9QJdQGPBmHxUuEAMlSpeGCkFilj5g6qWLUmVypTwi0bFbnJjxoyhBx54gBITE+1Y3OvPIF5LF7g+L3Kv1GNFQBFQBBQBRUARyCUEYGD6HwwFscK53HDDDWmI8wIzkMggCCppt99+u3HdbricBVY9c+lr0WEUAUVAEVAEFAFFwBMCsNXgfZdlKMaHeOfOndOOHTsW9pLLlClT0mrUqGFcrxsmKRBabvCEn9YpAoqAIqAIKAKKQC4jgO2PphgyGcX4MK9bt27aunXrwlJ4Qb6htC5duhjXmBUHxL15Kpe/Eh1OEVAEFAFFQBFQBJwQgEbhGbSLHupFixZN++abb9IQUTbkBZiUlJS0kSNHpsGWR7S2LBhcAC4DnHDTNkVAEVAEFAFFQBEIAgLYMroEsUkmYmjxA7579+5pW7duDUnhZfPmzWn9+/dPg8uyeD1Z1p4EoaVPEL4KHVIRUAQUAUVAEVAEJAjAy4i9izagiB/2BQoUSEPQtjTWbASbDhw4kPbBBx+ktW3bVjx/m7Vu52zPEsyURxFQBBQBRUARUASCiAASLFZCwDl29/Xq4V+hQoU0hMlP++OPP3LF+wgB49LWrFmT9uOPP1rjIiZNGty1vZqzhzUeh5blNfRrmwohiF+NDq0IKAKKgCKgCCgCnhDAtlERCC8r0OaTIMA2MLfddlvakCFD0tCXXxQxBw8eTJs0aVLaSy+9lNapU6e0woUL+zQ3uzVhm2w0AsuV94SH1gUeAQ1AF3iMdQRFQBFQBCIaAWheasD9eT4WWS6nC+XUAU2bNqVGjRpR7dq1ic9jY2OpWLFixDmRLrnkEkpOTqbTp08T3K1p//79lJCQQNu3b6e1a9fSsmXLCNtAOZ2G3fVbn3jiiccHDRo0wY5B6xUBRUARUAQUAUUgDBCABqIGprkaxa/ajRDp7wi2hR6HRih/GHwVOkVFQBFQBBQBRUARkCAAg91i2EYZBd5IEV7OYj3fQiirLFm/8igCioAioAgoAopAGCIA7cSDmDZnSQxXASYBBrxvQBCrGIbw65QVAUVAEVAEFAFFwFsEeOsI2orxuC5chJdzmO8E2LD0wpaQ7xkivQVK+RUBRUARUAQUgf9v54xREIahMIwUVOjg4NxdegfxAk6eQFyEnMAthxA8hF1dXB3cXDxDZwcFq5SK3wNvIJhY/sBPHy0kL18K/XkNEYF4CGAEpmRzQjEaGDMreypES6orw3ioKRMREAEREAEREIFgBKhgdDAwMxI4oBcKaWKuVglyzs0xK4NgUDSwCIiACIiACIhA/AS89xOMw5ZMb+gXBubCeDuqKitOuB1jVvQbKP7XRBmKgAiIgAiIQFwEMBCpVWHYBLsmszNq0LdGpqKPI31uMCoL9tmMrNrDPbUWEdCCtmgxNRUREAER+FcCGJmkLMu0KIqUOfRRl7jHNfnIvlf2m8nUYE7qLMtq4idxRfzI8/zOwXX2XK3FBN6HAyC5Bp1hLwAAAABJRU5ErkJggg==;" parent="ZoZJ02Cc0tsd7c2bpwbk-59" vertex="1">
          <mxGeometry width="106.49" height="113.36" as="geometry" />
        </mxCell>
        <mxCell id="ZoZJ02Cc0tsd7c2bpwbk-61" value="" style="group" parent="1" vertex="1" connectable="0">
          <mxGeometry x="1081" y="278" width="160" height="112" as="geometry" />
        </mxCell>
        <mxCell id="ZoZJ02Cc0tsd7c2bpwbk-32" value="Attachment Storage" style="text;html=1;align=center;verticalAlign=middle;whiteSpace=wrap;rounded=0;fontSize=20;" parent="ZoZJ02Cc0tsd7c2bpwbk-61" vertex="1">
          <mxGeometry x="-20" y="82" width="180" height="30" as="geometry" />
        </mxCell>
        <mxCell id="ZoZJ02Cc0tsd7c2bpwbk-34" value="" style="shape=image;verticalLabelPosition=bottom;labelBackgroundColor=default;verticalAlign=top;aspect=fixed;imageAspect=0;image=https://cdn-icons-png.flaticon.com/512/2004/2004726.png;" parent="ZoZJ02Cc0tsd7c2bpwbk-61" vertex="1">
          <mxGeometry x="39" width="82" height="82" as="geometry" />
        </mxCell>
        <mxCell id="FV3OOiO2Z-V5Tv1cWkMr-1" value="" style="group" parent="1" vertex="1" connectable="0">
          <mxGeometry x="948.76" y="390" width="142.5" height="171.68" as="geometry" />
        </mxCell>
        <mxCell id="ZoZJ02Cc0tsd7c2bpwbk-45" value="Jira instance with Zephyr Scale and Xray" style="text;html=1;align=center;verticalAlign=middle;whiteSpace=wrap;rounded=0;fontSize=20;" parent="FV3OOiO2Z-V5Tv1cWkMr-1" vertex="1">
          <mxGeometry y="141.68" width="142.5" height="30" as="geometry" />
        </mxCell>
        <mxCell id="ZoZJ02Cc0tsd7c2bpwbk-53" value="" style="shape=image;verticalLabelPosition=bottom;labelBackgroundColor=default;verticalAlign=top;aspect=fixed;imageAspect=0;image=https://capacity.com/wp-content/uploads/2019/07/jira-logoo.png;" parent="FV3OOiO2Z-V5Tv1cWkMr-1" vertex="1">
          <mxGeometry x="13.180000000000064" width="116.13" height="120" as="geometry" />
        </mxCell>
        <mxCell id="FV3OOiO2Z-V5Tv1cWkMr-4" value="" style="group" parent="1" vertex="1" connectable="0">
          <mxGeometry x="470" y="130" width="710" height="70" as="geometry" />
        </mxCell>
        <mxCell id="FV3OOiO2Z-V5Tv1cWkMr-3" value="" style="rounded=0;whiteSpace=wrap;html=1;" parent="FV3OOiO2Z-V5Tv1cWkMr-4" vertex="1">
          <mxGeometry y="5" width="710" height="60" as="geometry" />
        </mxCell>
        <mxCell id="ZoZJ02Cc0tsd7c2bpwbk-54" value="Migration within the same Jira instance" style="text;strokeColor=none;fillColor=none;html=1;fontSize=35;fontStyle=1;verticalAlign=middle;align=center;" parent="FV3OOiO2Z-V5Tv1cWkMr-4" vertex="1">
          <mxGeometry x="25.969999999999914" width="658.06" height="70" as="geometry" />
        </mxCell>
      </root>
    </mxGraphModel>
  </diagram>
</mxfile>
